<svg width="1150" height="327" viewBox="0 0 1150 327" fill="none" xmlns="http://www.w3.org/2000/svg">
<path fill-rule="evenodd" clip-rule="evenodd" d="M9.00156 23.0279C9.5088 20.7946 10.7557 18.8005 12.5381 17.3723C14.3205 15.9441 16.5328 15.1663 18.8125 15.1665H79.1875C81.4672 15.1663 83.6795 15.9441 85.4619 17.3723C87.2443 18.8005 88.4912 20.7946 88.9984 23.0279L49 47.5928L9.00156 23.0279ZM8.75 28.8013V64.716L37.9463 46.7283L8.75 28.8013ZM42.7663 49.6959L9.71097 70.0547C10.5277 71.7851 11.8167 73.2469 13.428 74.2699C15.0392 75.2929 16.9065 75.835 18.8125 75.8332H79.1875C81.0932 75.8336 82.9597 75.2903 84.5701 74.2664C86.1805 73.2425 87.4684 71.7802 88.284 70.0496L55.2287 49.6909L49 53.5179L42.7663 49.6909V49.6959ZM60.0537 46.7334L89.25 64.716V28.8013L60.0537 46.7283V46.7334Z" fill="#343434"/>
<rect x="126" y="9" width="1024" height="74" rx="16" fill="#343434"/>
<rect x="126" y="130" width="1024" height="74" rx="16" fill="#343434"/>
<rect x="126" y="253" width="1024" height="74" rx="16" fill="#343434"/>
<path d="M61.875 165.5C61.875 167.948 61.1492 170.34 59.7894 172.375C58.4297 174.41 56.4969 175.996 54.2357 176.933C51.9745 177.87 49.4863 178.115 47.0858 177.637C44.6852 177.16 42.4802 175.981 40.7496 174.25C39.0189 172.52 37.8403 170.315 37.3628 167.914C36.8853 165.514 37.1304 163.026 38.067 160.764C39.0036 158.503 40.5898 156.57 42.6248 155.211C44.6599 153.851 47.0525 153.125 49.5 153.125C52.7809 153.129 55.9263 154.434 58.2463 156.754C60.5662 159.074 61.8712 162.219 61.875 165.5ZM88.1719 148.484V182.516C88.1653 188.257 85.8816 193.762 81.8217 197.822C77.7618 201.882 72.2572 204.165 66.5156 204.172H32.4844C26.7428 204.165 21.2382 201.882 17.1783 197.822C13.1184 193.762 10.8347 188.257 10.8281 182.516V148.484C10.8347 142.743 13.1184 137.238 17.1783 133.178C21.2382 129.118 26.7428 126.835 32.4844 126.828H66.5156C72.2572 126.835 77.7618 129.118 81.8217 133.178C85.8816 137.238 88.1653 142.743 88.1719 148.484V148.484ZM68.0625 165.5C68.0625 161.829 66.9738 158.24 64.9342 155.187C62.8945 152.135 59.9954 149.755 56.6036 148.35C53.2117 146.946 49.4794 146.578 45.8786 147.294C42.2779 148.01 38.9703 149.778 36.3743 152.374C33.7783 154.97 32.0104 158.278 31.2942 161.879C30.5779 165.479 30.9455 169.212 32.3505 172.604C33.7554 175.995 36.1346 178.894 39.1872 180.934C42.2398 182.974 45.8287 184.062 49.5 184.062C54.4214 184.057 59.1396 182.1 62.6196 178.62C66.0995 175.14 68.057 170.421 68.0625 165.5V165.5ZM74.25 145.391C74.25 144.473 73.9778 143.576 73.4679 142.812C72.958 142.049 72.2332 141.454 71.3853 141.103C70.5373 140.752 69.6042 140.66 68.704 140.839C67.8038 141.018 66.977 141.46 66.328 142.109C65.679 142.758 65.237 143.585 65.0579 144.485C64.8789 145.385 64.9708 146.319 65.322 147.167C65.6732 148.014 66.268 148.739 67.0312 149.249C67.7943 149.759 68.6915 150.031 69.6094 150.031C70.8401 150.031 72.0205 149.542 72.8908 148.672C73.7611 147.802 74.25 146.621 74.25 145.391Z" fill="#343434"/>
<rect x="14.625" y="255.312" width="68.1875" height="68.1875" rx="12.5" fill="#343434" stroke="#343434"/>
<path d="M66.8229 308.052C62.4437 303.161 56.081 300.083 48.9994 300.083C41.9178 300.083 35.5551 303.161 31.1759 308.052" stroke="black" stroke-width="5" stroke-linecap="round" stroke-linejoin="round"/>
<path d="M49 289.833C54.6609 289.833 59.25 285.244 59.25 279.583C59.25 273.923 54.6609 269.333 49 269.333C43.3391 269.333 38.75 273.923 38.75 279.583C38.75 285.244 43.3391 289.833 49 289.833Z" fill="black" stroke="black" stroke-width="2" stroke-linecap="round" stroke-linejoin="round"/>
<path d="M155.224 57C154.755 57 154.392 56.8827 154.136 56.648C153.901 56.392 153.784 56.0293 153.784 55.56V35.88C153.784 35.4107 153.901 35.0587 154.136 34.824C154.392 34.568 154.755 34.44 155.224 34.44H167.128C167.491 34.44 167.768 34.536 167.96 34.728C168.152 34.92 168.248 35.1867 168.248 35.528C168.248 35.8907 168.152 36.168 167.96 36.36C167.768 36.552 167.491 36.648 167.128 36.648H156.344V44.456H166.456C166.819 44.456 167.096 44.552 167.288 44.744C167.48 44.9147 167.576 45.1813 167.576 45.544C167.576 45.9067 167.48 46.184 167.288 46.376C167.096 46.568 166.819 46.664 166.456 46.664H156.344V54.792H167.128C167.491 54.792 167.768 54.888 167.96 55.08C168.152 55.272 168.248 55.5387 168.248 55.88C168.248 56.2427 168.152 56.52 167.96 56.712C167.768 56.904 167.491 57 167.128 57H155.224ZM173.432 57.224C173.006 57.224 172.686 57.1067 172.472 56.872C172.259 56.6373 172.152 56.3067 172.152 55.88V42.536C172.152 42.1093 172.259 41.7893 172.472 41.576C172.686 41.3413 172.995 41.224 173.4 41.224C173.806 41.224 174.115 41.3413 174.328 41.576C174.563 41.7893 174.68 42.1093 174.68 42.536V45.352L174.328 44.904C174.734 43.7093 175.384 42.792 176.28 42.152C177.198 41.4907 178.286 41.16 179.544 41.16C180.867 41.16 181.934 41.48 182.744 42.12C183.576 42.7387 184.131 43.7093 184.408 45.032H183.928C184.312 43.8373 184.995 42.8987 185.976 42.216C186.979 41.512 188.142 41.16 189.464 41.16C190.638 41.16 191.598 41.384 192.344 41.832C193.112 42.28 193.688 42.9627 194.072 43.88C194.456 44.776 194.648 45.9173 194.648 47.304V55.88C194.648 56.3067 194.531 56.6373 194.296 56.872C194.083 57.1067 193.763 57.224 193.336 57.224C192.931 57.224 192.611 57.1067 192.376 56.872C192.163 56.6373 192.056 56.3067 192.056 55.88V47.432C192.056 46.0027 191.811 44.9573 191.32 44.296C190.83 43.6133 189.998 43.272 188.824 43.272C187.544 43.272 186.531 43.72 185.784 44.616C185.059 45.4907 184.696 46.6853 184.696 48.2V55.88C184.696 56.3067 184.579 56.6373 184.344 56.872C184.131 57.1067 183.811 57.224 183.384 57.224C182.979 57.224 182.659 57.1067 182.424 56.872C182.211 56.6373 182.104 56.3067 182.104 55.88V47.432C182.104 46.0027 181.848 44.9573 181.336 44.296C180.846 43.6133 180.024 43.272 178.872 43.272C177.592 43.272 176.579 43.72 175.832 44.616C175.107 45.4907 174.744 46.6853 174.744 48.2V55.88C174.744 56.776 174.307 57.224 173.432 57.224ZM204.391 57.288C203.324 57.288 202.364 57.0853 201.511 56.68C200.679 56.2533 200.017 55.6773 199.527 54.952C199.036 54.2267 198.791 53.416 198.791 52.52C198.791 51.368 199.079 50.4613 199.655 49.8C200.252 49.1387 201.223 48.6693 202.567 48.392C203.932 48.1147 205.788 47.976 208.135 47.976H209.575V49.672H208.167C206.439 49.672 205.073 49.7573 204.071 49.928C203.089 50.0773 202.396 50.344 201.991 50.728C201.607 51.112 201.415 51.656 201.415 52.36C201.415 53.2347 201.713 53.9493 202.311 54.504C202.929 55.0587 203.761 55.336 204.807 55.336C205.66 55.336 206.407 55.1333 207.047 54.728C207.708 54.3227 208.22 53.768 208.583 53.064C208.967 52.36 209.159 51.5493 209.159 50.632V46.984C209.159 45.6613 208.892 44.712 208.359 44.136C207.825 43.5387 206.951 43.24 205.735 43.24C204.988 43.24 204.241 43.336 203.495 43.528C202.748 43.72 201.959 44.0293 201.127 44.456C200.828 44.6053 200.572 44.6587 200.359 44.616C200.145 44.552 199.975 44.4347 199.847 44.264C199.719 44.0933 199.644 43.9013 199.623 43.688C199.601 43.4533 199.644 43.2293 199.751 43.016C199.879 42.8027 200.071 42.632 200.327 42.504C201.265 42.0347 202.193 41.6933 203.111 41.48C204.028 41.2667 204.903 41.16 205.735 41.16C207.079 41.16 208.188 41.384 209.063 41.832C209.937 42.2587 210.588 42.92 211.015 43.816C211.441 44.6907 211.655 45.8213 211.655 47.208V55.88C211.655 56.3067 211.548 56.6373 211.335 56.872C211.143 57.1067 210.855 57.224 210.471 57.224C210.065 57.224 209.756 57.1067 209.543 56.872C209.329 56.6373 209.223 56.3067 209.223 55.88V53.384H209.511C209.34 54.1947 209.009 54.888 208.519 55.464C208.049 56.04 207.463 56.488 206.759 56.808C206.055 57.128 205.265 57.288 204.391 57.288ZM217.743 57.16C217.317 57.16 216.997 57.0427 216.783 56.808C216.57 56.552 216.463 56.2 216.463 55.752V42.664C216.463 42.216 216.57 41.8747 216.783 41.64C216.997 41.4053 217.317 41.288 217.743 41.288C218.149 41.288 218.469 41.4053 218.703 41.64C218.938 41.8747 219.055 42.216 219.055 42.664V55.752C219.055 56.2 218.938 56.552 218.703 56.808C218.49 57.0427 218.17 57.16 217.743 57.16ZM217.743 37.704C217.21 37.704 216.794 37.5653 216.495 37.288C216.197 36.9893 216.047 36.5947 216.047 36.104C216.047 35.592 216.197 35.208 216.495 34.952C216.794 34.6747 217.21 34.536 217.743 34.536C218.298 34.536 218.714 34.6747 218.991 34.952C219.29 35.208 219.439 35.592 219.439 36.104C219.439 36.5947 219.29 36.9893 218.991 37.288C218.714 37.5653 218.298 37.704 217.743 37.704ZM228.637 57.288C227.101 57.288 225.927 56.8187 225.117 55.88C224.306 54.9413 223.901 53.5973 223.901 51.848V35.528C223.901 35.1013 224.007 34.7813 224.221 34.568C224.434 34.3333 224.754 34.216 225.181 34.216C225.586 34.216 225.906 34.3333 226.141 34.568C226.375 34.7813 226.493 35.1013 226.493 35.528V51.656C226.493 52.808 226.717 53.672 227.165 54.248C227.634 54.8027 228.317 55.08 229.213 55.08C229.405 55.08 229.575 55.0693 229.725 55.048C229.874 55.0267 230.023 55.016 230.173 55.016C230.407 54.9947 230.567 55.048 230.653 55.176C230.759 55.304 230.813 55.56 230.813 55.944C230.813 56.328 230.727 56.616 230.557 56.808C230.386 57 230.109 57.128 229.725 57.192C229.554 57.2133 229.373 57.2347 229.181 57.256C228.989 57.2773 228.807 57.288 228.637 57.288ZM242.868 57.128C242.334 57.128 241.908 56.968 241.588 56.648C241.268 56.3067 241.108 55.88 241.108 55.368C241.108 54.856 241.268 54.44 241.588 54.12C241.908 53.7787 242.334 53.608 242.868 53.608C243.401 53.608 243.817 53.7787 244.116 54.12C244.436 54.44 244.596 54.856 244.596 55.368C244.596 55.88 244.436 56.3067 244.116 56.648C243.817 56.968 243.401 57.128 242.868 57.128ZM242.868 44.84C242.334 44.84 241.908 44.6693 241.588 44.328C241.268 43.9867 241.108 43.5707 241.108 43.08C241.108 42.5467 241.268 42.12 241.588 41.8C241.908 41.48 242.334 41.32 242.868 41.32C243.401 41.32 243.817 41.48 244.116 41.8C244.436 42.12 244.596 42.5467 244.596 43.08C244.596 43.5707 244.436 43.9867 244.116 44.328C243.817 44.6693 243.401 44.84 242.868 44.84ZM258.943 57C258.473 57 258.111 56.8827 257.855 56.648C257.62 56.392 257.503 56.0293 257.503 55.56V35.88C257.503 35.4107 257.62 35.0587 257.855 34.824C258.111 34.568 258.473 34.44 258.943 34.44H265.119C268.767 34.44 271.583 35.4 273.567 37.32C275.551 39.24 276.543 42.0347 276.543 45.704C276.543 47.5387 276.287 49.16 275.775 50.568C275.284 51.9547 274.548 53.128 273.567 54.088C272.585 55.048 271.391 55.7733 269.983 56.264C268.575 56.7547 266.953 57 265.119 57H258.943ZM260.127 54.76H264.927C266.42 54.76 267.711 54.568 268.799 54.184C269.908 53.8 270.825 53.2347 271.551 52.488C272.297 51.7413 272.852 50.8027 273.215 49.672C273.577 48.52 273.759 47.1973 273.759 45.704C273.759 42.696 273.023 40.4453 271.551 38.952C270.079 37.4373 267.871 36.68 264.927 36.68H260.127V54.76ZM286.693 57.224C286.33 57.224 286.01 57.128 285.733 56.936C285.455 56.7227 285.221 56.4027 285.029 55.976L279.493 43.048C279.343 42.728 279.29 42.4293 279.333 42.152C279.375 41.8747 279.503 41.6507 279.717 41.48C279.93 41.3093 280.229 41.224 280.613 41.224C280.954 41.224 281.221 41.2987 281.413 41.448C281.605 41.5973 281.775 41.864 281.925 42.248L287.173 55.08H286.309L291.653 42.248C291.802 41.864 291.973 41.5973 292.165 41.448C292.357 41.2987 292.634 41.224 292.997 41.224C293.338 41.224 293.594 41.3093 293.765 41.48C293.957 41.6507 294.063 41.8747 294.085 42.152C294.127 42.408 294.085 42.696 293.957 43.016L288.357 55.976C288.207 56.4027 287.983 56.7227 287.685 56.936C287.407 57.128 287.077 57.224 286.693 57.224ZM299.669 57.224C299.264 57.224 298.944 57.1067 298.709 56.872C298.496 56.6373 298.389 56.3067 298.389 55.88V43.464H296.341C296 43.464 295.722 43.3787 295.509 43.208C295.317 43.016 295.221 42.76 295.221 42.44C295.221 42.12 295.317 41.8747 295.509 41.704C295.722 41.5333 296 41.448 296.341 41.448H299.093L298.389 42.12V40.904C298.389 38.8773 298.88 37.3307 299.861 36.264C300.864 35.1973 302.325 34.5787 304.245 34.408L305.173 34.312C305.472 34.2907 305.706 34.344 305.877 34.472C306.069 34.6 306.186 34.76 306.229 34.952C306.293 35.144 306.304 35.3467 306.261 35.56C306.218 35.752 306.122 35.9227 305.973 36.072C305.824 36.2213 305.642 36.3067 305.429 36.328L304.693 36.392C303.392 36.4987 302.442 36.8933 301.845 37.576C301.269 38.2587 300.981 39.2613 300.981 40.584V41.928L300.597 41.448H304.437C304.8 41.448 305.077 41.5333 305.269 41.704C305.461 41.8747 305.557 42.12 305.557 42.44C305.557 42.76 305.461 43.016 305.269 43.208C305.077 43.3787 304.8 43.464 304.437 43.464H300.981V55.88C300.981 56.776 300.544 57.224 299.669 57.224ZM313.672 57.288C312.456 57.288 311.432 57.0747 310.6 56.648C309.789 56.2 309.181 55.56 308.776 54.728C308.371 53.8747 308.168 52.84 308.168 51.624V43.464H306.024C305.661 43.464 305.384 43.3787 305.192 43.208C305 43.016 304.904 42.76 304.904 42.44C304.904 42.12 305 41.8747 305.192 41.704C305.384 41.5333 305.661 41.448 306.024 41.448H308.168V37.768C308.168 37.3413 308.285 37.0213 308.52 36.808C308.755 36.5733 309.075 36.456 309.48 36.456C309.885 36.456 310.195 36.5733 310.408 36.808C310.643 37.0213 310.76 37.3413 310.76 37.768V41.448H314.792C315.155 41.448 315.432 41.5333 315.624 41.704C315.816 41.8747 315.912 42.12 315.912 42.44C315.912 42.76 315.816 43.016 315.624 43.208C315.432 43.3787 315.155 43.464 314.792 43.464H310.76V51.368C310.76 52.584 311.016 53.512 311.528 54.152C312.04 54.7707 312.872 55.08 314.024 55.08C314.429 55.08 314.771 55.0373 315.048 54.952C315.347 54.8667 315.592 54.824 315.784 54.824C315.976 54.8027 316.136 54.8667 316.264 55.016C316.392 55.1653 316.456 55.4213 316.456 55.784C316.456 56.04 316.403 56.2747 316.296 56.488C316.211 56.7013 316.051 56.8507 315.816 56.936C315.56 57.0213 315.219 57.096 314.792 57.16C314.387 57.2453 314.013 57.288 313.672 57.288ZM319.932 57.224C319.505 57.224 319.174 57.1067 318.94 56.872C318.726 56.6373 318.62 56.3067 318.62 55.88V42.536C318.62 42.1093 318.726 41.7893 318.94 41.576C319.153 41.3413 319.462 41.224 319.868 41.224C320.273 41.224 320.582 41.3413 320.796 41.576C321.03 41.7893 321.148 42.1093 321.148 42.536V45.128H320.828C321.169 43.8693 321.82 42.8987 322.78 42.216C323.74 41.5333 324.924 41.1707 326.332 41.128C326.652 41.1067 326.908 41.1813 327.1 41.352C327.292 41.5013 327.398 41.768 327.42 42.152C327.441 42.5147 327.356 42.8027 327.164 43.016C326.972 43.2293 326.673 43.3573 326.268 43.4L325.756 43.464C324.305 43.592 323.185 44.0613 322.396 44.872C321.628 45.6613 321.244 46.7493 321.244 48.136V55.88C321.244 56.3067 321.126 56.6373 320.891 56.872C320.678 57.1067 320.358 57.224 319.932 57.224ZM337.736 57.288C336.52 57.288 335.304 57.1067 334.088 56.744C332.894 56.3813 331.806 55.816 330.824 55.048C330.568 54.8773 330.398 54.6747 330.312 54.44C330.227 54.2053 330.216 53.9707 330.28 53.736C330.344 53.5013 330.462 53.3093 330.632 53.16C330.803 52.9893 331.006 52.8933 331.24 52.872C331.496 52.8507 331.763 52.936 332.04 53.128C332.915 53.7467 333.822 54.2053 334.76 54.504C335.699 54.8027 336.68 54.952 337.704 54.952C338.75 54.952 339.646 54.76 340.392 54.376C341.16 53.9707 341.736 53.416 342.12 52.712C342.526 51.9867 342.728 51.144 342.728 50.184C342.728 48.712 342.302 47.5067 341.448 46.568C340.595 45.6293 339.422 45.16 337.928 45.16C337.011 45.16 336.168 45.3307 335.4 45.672C334.632 46.0133 333.928 46.5573 333.288 47.304C333.139 47.4747 332.958 47.624 332.744 47.752C332.552 47.8587 332.328 47.912 332.072 47.912C331.71 47.912 331.422 47.816 331.208 47.624C331.016 47.4107 330.92 47.1333 330.92 46.792V35.656C330.92 35.2507 331.027 34.952 331.24 34.76C331.454 34.5467 331.752 34.44 332.136 34.44H343.016C343.422 34.44 343.72 34.536 343.912 34.728C344.126 34.92 344.232 35.1973 344.232 35.56C344.232 35.9227 344.126 36.2 343.912 36.392C343.72 36.584 343.422 36.68 343.016 36.68H333.512V45.672H332.808C333.363 44.776 334.131 44.0933 335.112 43.624C336.094 43.1333 337.192 42.888 338.408 42.888C339.838 42.888 341.064 43.1867 342.088 43.784C343.134 44.3813 343.934 45.224 344.488 46.312C345.064 47.3787 345.352 48.6267 345.352 50.056C345.352 51.464 345.043 52.712 344.424 53.8C343.806 54.888 342.931 55.7413 341.8 56.36C340.67 56.9787 339.315 57.288 337.736 57.288ZM351.804 57C351.42 57 351.121 56.904 350.908 56.712C350.694 56.4987 350.588 56.2107 350.588 55.848C350.588 55.4853 350.694 55.2187 350.908 55.048C351.121 54.856 351.42 54.76 351.804 54.76H355.964V36.616H357.34L352.7 39.688C352.422 39.8373 352.156 39.9013 351.9 39.88C351.665 39.8587 351.462 39.7733 351.292 39.624C351.142 39.4533 351.036 39.2613 350.972 39.048C350.908 38.8133 350.918 38.5787 351.004 38.344C351.089 38.088 351.27 37.8747 351.548 37.704L355.964 34.792C356.241 34.6213 356.508 34.4827 356.764 34.376C357.02 34.2693 357.276 34.216 357.532 34.216C357.83 34.216 358.076 34.312 358.268 34.504C358.481 34.6747 358.588 34.952 358.588 35.336V54.76H362.428C362.812 54.76 363.11 54.856 363.324 55.048C363.537 55.2187 363.644 55.4853 363.644 55.848C363.644 56.232 363.537 56.52 363.324 56.712C363.11 56.904 362.812 57 362.428 57H351.804ZM370.991 57C370.607 57 370.309 56.904 370.095 56.712C369.882 56.4987 369.775 56.2107 369.775 55.848C369.775 55.4853 369.882 55.2187 370.095 55.048C370.309 54.856 370.607 54.76 370.991 54.76H375.151V36.616H376.527L371.887 39.688C371.61 39.8373 371.343 39.9013 371.087 39.88C370.853 39.8587 370.65 39.7733 370.479 39.624C370.33 39.4533 370.223 39.2613 370.159 39.048C370.095 38.8133 370.106 38.5787 370.191 38.344C370.277 38.088 370.458 37.8747 370.735 37.704L375.151 34.792C375.429 34.6213 375.695 34.4827 375.951 34.376C376.207 34.2693 376.463 34.216 376.719 34.216C377.018 34.216 377.263 34.312 377.455 34.504C377.669 34.6747 377.775 34.952 377.775 35.336V54.76H381.615C381.999 54.76 382.298 54.856 382.511 55.048C382.725 55.2187 382.831 55.4853 382.831 55.848C382.831 56.232 382.725 56.52 382.511 56.712C382.298 56.904 381.999 57 381.615 57H370.991ZM394.819 57.288C392.237 57.288 390.275 56.296 388.931 54.312C387.587 52.328 386.915 49.4587 386.915 45.704C386.915 43.1867 387.213 41.0747 387.811 39.368C388.408 37.64 389.293 36.3387 390.467 35.464C391.661 34.5893 393.112 34.152 394.819 34.152C397.421 34.152 399.384 35.1333 400.707 37.096C402.051 39.0373 402.723 41.896 402.723 45.672C402.723 48.1893 402.424 50.312 401.827 52.04C401.229 53.768 400.344 55.08 399.171 55.976C397.997 56.8507 396.547 57.288 394.819 57.288ZM394.819 55.016C396.611 55.016 397.933 54.2587 398.787 52.744C399.661 51.208 400.099 48.8507 400.099 45.672C400.099 42.472 399.661 40.136 398.787 38.664C397.933 37.1707 396.611 36.424 394.819 36.424C393.048 36.424 391.725 37.1707 390.851 38.664C389.976 40.1573 389.539 42.4933 389.539 45.672C389.539 48.8507 389.976 51.208 390.851 52.744C391.725 54.2587 393.048 55.016 394.819 55.016ZM414.486 57.288C413.27 57.288 412.054 57.1067 410.838 56.744C409.644 56.3813 408.556 55.816 407.574 55.048C407.318 54.8773 407.148 54.6747 407.062 54.44C406.977 54.2053 406.966 53.9707 407.03 53.736C407.094 53.5013 407.212 53.3093 407.382 53.16C407.553 52.9893 407.756 52.8933 407.99 52.872C408.246 52.8507 408.513 52.936 408.79 53.128C409.665 53.7467 410.572 54.2053 411.51 54.504C412.449 54.8027 413.43 54.952 414.454 54.952C415.5 54.952 416.396 54.76 417.142 54.376C417.91 53.9707 418.486 53.416 418.87 52.712C419.276 51.9867 419.478 51.144 419.478 50.184C419.478 48.712 419.052 47.5067 418.198 46.568C417.345 45.6293 416.172 45.16 414.678 45.16C413.761 45.16 412.918 45.3307 412.15 45.672C411.382 46.0133 410.678 46.5573 410.038 47.304C409.889 47.4747 409.708 47.624 409.494 47.752C409.302 47.8587 409.078 47.912 408.822 47.912C408.46 47.912 408.172 47.816 407.958 47.624C407.766 47.4107 407.67 47.1333 407.67 46.792V35.656C407.67 35.2507 407.777 34.952 407.99 34.76C408.204 34.5467 408.502 34.44 408.886 34.44H419.766C420.172 34.44 420.47 34.536 420.662 34.728C420.876 34.92 420.982 35.1973 420.982 35.56C420.982 35.9227 420.876 36.2 420.662 36.392C420.47 36.584 420.172 36.68 419.766 36.68H410.262V45.672H409.558C410.113 44.776 410.881 44.0933 411.862 43.624C412.844 43.1333 413.942 42.888 415.158 42.888C416.588 42.888 417.814 43.1867 418.838 43.784C419.884 44.3813 420.684 45.224 421.238 46.312C421.814 47.3787 422.102 48.6267 422.102 50.056C422.102 51.464 421.793 52.712 421.174 53.8C420.556 54.888 419.681 55.7413 418.55 56.36C417.42 56.9787 416.065 57.288 414.486 57.288ZM439.114 62.216C437.066 62.216 435.21 61.8853 433.546 61.224C431.882 60.584 430.452 59.656 429.258 58.44C428.063 57.224 427.146 55.7627 426.506 54.056C425.866 52.328 425.546 50.3973 425.546 48.264C425.546 46.1733 425.876 44.264 426.538 42.536C427.22 40.808 428.18 39.3253 429.418 38.088C430.676 36.8293 432.159 35.8587 433.866 35.176C435.572 34.4933 437.46 34.152 439.53 34.152C442.004 34.152 444.17 34.6533 446.026 35.656C447.882 36.6373 449.322 38.0133 450.346 39.784C451.391 41.5547 451.914 43.624 451.914 45.992C451.914 47.848 451.658 49.4587 451.146 50.824C450.634 52.1893 449.919 53.2453 449.002 53.992C448.106 54.7387 447.05 55.112 445.834 55.112C444.554 55.112 443.583 54.7493 442.922 54.024C442.282 53.2773 442.004 52.2747 442.09 51.016L442.698 51.176C442.164 52.456 441.407 53.4373 440.426 54.12C439.444 54.7813 438.41 55.112 437.322 55.112C435.679 55.112 434.399 54.6 433.482 53.576C432.586 52.5307 432.138 51.1013 432.138 49.288C432.138 47.7307 432.436 46.344 433.034 45.128C433.631 43.8907 434.452 42.92 435.498 42.216C436.543 41.512 437.727 41.16 439.05 41.16C440.202 41.16 441.151 41.448 441.898 42.024C442.644 42.6 443.124 43.4107 443.338 44.456H442.986L443.338 42.312C443.444 41.6293 443.839 41.288 444.522 41.288C444.884 41.288 445.14 41.3947 445.29 41.608C445.46 41.8 445.514 42.088 445.45 42.472L444.17 49.736C444.127 50.0133 444.095 50.28 444.074 50.536C444.052 50.792 444.042 51.0267 444.042 51.24C444.042 51.944 444.202 52.4773 444.522 52.84C444.842 53.2027 445.322 53.384 445.962 53.384C446.794 53.384 447.508 53.0747 448.106 52.456C448.724 51.8373 449.204 50.9733 449.546 49.864C449.908 48.7547 450.09 47.464 450.09 45.992C450.09 43.9653 449.642 42.2053 448.746 40.712C447.871 39.2187 446.644 38.056 445.066 37.224C443.487 36.392 441.631 35.976 439.498 35.976C437.13 35.976 435.05 36.488 433.258 37.512C431.466 38.536 430.068 39.976 429.066 41.832C428.063 43.6667 427.562 45.8107 427.562 48.264C427.562 50.8027 428.031 52.9787 428.97 54.792C429.93 56.6053 431.274 57.992 433.002 58.952C434.73 59.9333 436.767 60.424 439.114 60.424C440.671 60.424 442.09 60.2 443.37 59.752C444.65 59.304 445.727 58.696 446.602 57.928C446.9 57.6933 447.178 57.5867 447.434 57.608C447.69 57.6507 447.892 57.768 448.042 57.96C448.191 58.152 448.244 58.376 448.202 58.632C448.18 58.888 448.031 59.144 447.754 59.4C446.772 60.2533 445.535 60.936 444.042 61.448C442.57 61.96 440.927 62.216 439.114 62.216ZM437.61 53.256C438.57 53.256 439.412 52.968 440.138 52.392C440.884 51.816 441.471 51.0267 441.898 50.024C442.324 49.0213 442.538 47.88 442.538 46.6C442.538 45.4053 442.271 44.5093 441.738 43.912C441.204 43.3147 440.383 43.016 439.274 43.016C438.335 43.016 437.492 43.2827 436.746 43.816C435.999 44.3493 435.402 45.0853 434.954 46.024C434.527 46.9627 434.314 48.0507 434.314 49.288C434.314 50.568 434.602 51.5493 435.178 52.232C435.754 52.9147 436.564 53.256 437.61 53.256ZM463.187 63.048C462.056 63.048 460.947 62.9093 459.859 62.632C458.792 62.376 457.822 61.96 456.947 61.384C456.691 61.2347 456.52 61.0533 456.435 60.84C456.371 60.6267 456.36 60.4133 456.403 60.2C456.446 60.008 456.542 59.8267 456.691 59.656C456.84 59.5067 457.011 59.4107 457.203 59.368C457.416 59.3253 457.63 59.3573 457.843 59.464C458.782 60.04 459.678 60.4347 460.531 60.648C461.384 60.8613 462.227 60.968 463.059 60.968C464.574 60.968 465.715 60.5627 466.483 59.752C467.272 58.9413 467.667 57.768 467.667 56.232V52.616H467.987C467.667 53.8533 466.984 54.8347 465.939 55.56C464.915 56.2853 463.71 56.648 462.323 56.648C460.894 56.648 459.656 56.328 458.611 55.688C457.566 55.0267 456.755 54.1093 456.179 52.936C455.624 51.7627 455.347 50.408 455.347 48.872C455.347 47.72 455.507 46.6747 455.827 45.736C456.147 44.776 456.606 43.9653 457.203 43.304C457.822 42.6213 458.558 42.0987 459.411 41.736C460.286 41.352 461.256 41.16 462.323 41.16C463.731 41.16 464.947 41.5227 465.971 42.248C466.995 42.952 467.656 43.912 467.955 45.128L467.635 45.512V42.536C467.635 42.1093 467.742 41.7893 467.955 41.576C468.19 41.3413 468.51 41.224 468.915 41.224C469.342 41.224 469.662 41.3413 469.875 41.576C470.088 41.7893 470.195 42.1093 470.195 42.536V55.88C470.195 58.248 469.598 60.0293 468.403 61.224C467.23 62.44 465.491 63.048 463.187 63.048ZM462.803 54.536C463.806 54.536 464.67 54.312 465.395 53.864C466.12 53.3947 466.675 52.7333 467.059 51.88C467.464 51.0267 467.667 50.024 467.667 48.872C467.667 47.144 467.23 45.7787 466.355 44.776C465.48 43.752 464.296 43.24 462.803 43.24C461.822 43.24 460.968 43.4747 460.243 43.944C459.518 44.392 458.952 45.0427 458.547 45.896C458.163 46.728 457.971 47.72 457.971 48.872C457.971 50.6 458.408 51.976 459.283 53C460.158 54.024 461.331 54.536 462.803 54.536ZM476.401 57.224C475.974 57.224 475.654 57.1067 475.441 56.872C475.228 56.6373 475.121 56.3067 475.121 55.88V42.536C475.121 42.1093 475.228 41.7893 475.441 41.576C475.654 41.3413 475.964 41.224 476.369 41.224C476.774 41.224 477.084 41.3413 477.297 41.576C477.532 41.7893 477.649 42.1093 477.649 42.536V45.352L477.297 44.904C477.702 43.7093 478.353 42.792 479.249 42.152C480.166 41.4907 481.254 41.16 482.513 41.16C483.836 41.16 484.902 41.48 485.713 42.12C486.545 42.7387 487.1 43.7093 487.377 45.032H486.897C487.281 43.8373 487.964 42.8987 488.945 42.216C489.948 41.512 491.11 41.16 492.433 41.16C493.606 41.16 494.566 41.384 495.313 41.832C496.081 42.28 496.657 42.9627 497.041 43.88C497.425 44.776 497.617 45.9173 497.617 47.304V55.88C497.617 56.3067 497.5 56.6373 497.265 56.872C497.052 57.1067 496.732 57.224 496.305 57.224C495.9 57.224 495.58 57.1067 495.345 56.872C495.132 56.6373 495.025 56.3067 495.025 55.88V47.432C495.025 46.0027 494.78 44.9573 494.289 44.296C493.798 43.6133 492.966 43.272 491.793 43.272C490.513 43.272 489.5 43.72 488.753 44.616C488.028 45.4907 487.665 46.6853 487.665 48.2V55.88C487.665 56.3067 487.548 56.6373 487.313 56.872C487.1 57.1067 486.78 57.224 486.353 57.224C485.948 57.224 485.628 57.1067 485.393 56.872C485.18 56.6373 485.073 56.3067 485.073 55.88V47.432C485.073 46.0027 484.817 44.9573 484.305 44.296C483.814 43.6133 482.993 43.272 481.841 43.272C480.561 43.272 479.548 43.72 478.801 44.616C478.076 45.4907 477.713 46.6853 477.713 48.2V55.88C477.713 56.776 477.276 57.224 476.401 57.224ZM507.359 57.288C506.293 57.288 505.333 57.0853 504.479 56.68C503.647 56.2533 502.986 55.6773 502.495 54.952C502.005 54.2267 501.759 53.416 501.759 52.52C501.759 51.368 502.047 50.4613 502.623 49.8C503.221 49.1387 504.191 48.6693 505.535 48.392C506.901 48.1147 508.757 47.976 511.103 47.976H512.543V49.672H511.135C509.407 49.672 508.042 49.7573 507.039 49.928C506.058 50.0773 505.365 50.344 504.959 50.728C504.575 51.112 504.383 51.656 504.383 52.36C504.383 53.2347 504.682 53.9493 505.279 54.504C505.898 55.0587 506.73 55.336 507.775 55.336C508.629 55.336 509.375 55.1333 510.015 54.728C510.677 54.3227 511.189 53.768 511.551 53.064C511.935 52.36 512.127 51.5493 512.127 50.632V46.984C512.127 45.6613 511.861 44.712 511.327 44.136C510.794 43.5387 509.919 43.24 508.703 43.24C507.957 43.24 507.21 43.336 506.463 43.528C505.717 43.72 504.927 44.0293 504.095 44.456C503.797 44.6053 503.541 44.6587 503.327 44.616C503.114 44.552 502.943 44.4347 502.815 44.264C502.687 44.0933 502.613 43.9013 502.591 43.688C502.57 43.4533 502.613 43.2293 502.719 43.016C502.847 42.8027 503.039 42.632 503.295 42.504C504.234 42.0347 505.162 41.6933 506.079 41.48C506.997 41.2667 507.871 41.16 508.703 41.16C510.047 41.16 511.157 41.384 512.031 41.832C512.906 42.2587 513.557 42.92 513.983 43.816C514.41 44.6907 514.623 45.8213 514.623 47.208V55.88C514.623 56.3067 514.517 56.6373 514.303 56.872C514.111 57.1067 513.823 57.224 513.439 57.224C513.034 57.224 512.725 57.1067 512.511 56.872C512.298 56.6373 512.191 56.3067 512.191 55.88V53.384H512.479C512.309 54.1947 511.978 54.888 511.487 55.464C511.018 56.04 510.431 56.488 509.727 56.808C509.023 57.128 508.234 57.288 507.359 57.288ZM520.712 57.16C520.285 57.16 519.965 57.0427 519.752 56.808C519.539 56.552 519.432 56.2 519.432 55.752V42.664C519.432 42.216 519.539 41.8747 519.752 41.64C519.965 41.4053 520.285 41.288 520.712 41.288C521.117 41.288 521.437 41.4053 521.672 41.64C521.907 41.8747 522.024 42.216 522.024 42.664V55.752C522.024 56.2 521.907 56.552 521.672 56.808C521.459 57.0427 521.139 57.16 520.712 57.16ZM520.712 37.704C520.179 37.704 519.763 37.5653 519.464 37.288C519.165 36.9893 519.016 36.5947 519.016 36.104C519.016 35.592 519.165 35.208 519.464 34.952C519.763 34.6747 520.179 34.536 520.712 34.536C521.267 34.536 521.683 34.6747 521.96 34.952C522.259 35.208 522.408 35.592 522.408 36.104C522.408 36.5947 522.259 36.9893 521.96 37.288C521.683 37.5653 521.267 37.704 520.712 37.704ZM531.606 57.288C530.07 57.288 528.896 56.8187 528.086 55.88C527.275 54.9413 526.87 53.5973 526.87 51.848V35.528C526.87 35.1013 526.976 34.7813 527.19 34.568C527.403 34.3333 527.723 34.216 528.15 34.216C528.555 34.216 528.875 34.3333 529.11 34.568C529.344 34.7813 529.462 35.1013 529.462 35.528V51.656C529.462 52.808 529.686 53.672 530.134 54.248C530.603 54.8027 531.286 55.08 532.182 55.08C532.374 55.08 532.544 55.0693 532.694 55.048C532.843 55.0267 532.992 55.016 533.142 55.016C533.376 54.9947 533.536 55.048 533.622 55.176C533.728 55.304 533.782 55.56 533.782 55.944C533.782 56.328 533.696 56.616 533.526 56.808C533.355 57 533.078 57.128 532.694 57.192C532.523 57.2133 532.342 57.2347 532.15 57.256C531.958 57.2773 531.776 57.288 531.606 57.288ZM537.899 57.128C537.365 57.128 536.939 56.968 536.619 56.648C536.299 56.3067 536.139 55.88 536.139 55.368C536.139 54.856 536.299 54.44 536.619 54.12C536.939 53.7787 537.365 53.608 537.899 53.608C538.432 53.608 538.848 53.7787 539.147 54.12C539.467 54.44 539.627 54.856 539.627 55.368C539.627 55.88 539.467 56.3067 539.147 56.648C538.848 56.968 538.432 57.128 537.899 57.128ZM549.805 57.288C548.248 57.288 546.904 56.9467 545.773 56.264C544.643 55.5813 543.768 54.632 543.149 53.416C542.552 52.1787 542.253 50.7493 542.253 49.128C542.253 47.8907 542.424 46.7813 542.765 45.8C543.107 44.8187 543.608 43.9867 544.269 43.304C544.931 42.6 545.72 42.0667 546.637 41.704C547.576 41.3413 548.632 41.16 549.805 41.16C550.573 41.16 551.373 41.2773 552.205 41.512C553.037 41.7467 553.795 42.152 554.477 42.728C554.691 42.8773 554.829 43.0587 554.893 43.272C554.957 43.4853 554.957 43.6987 554.893 43.912C554.829 44.104 554.723 44.2747 554.573 44.424C554.424 44.552 554.232 44.6267 553.997 44.648C553.784 44.6693 553.56 44.5947 553.325 44.424C552.771 43.9973 552.205 43.6987 551.629 43.528C551.053 43.3573 550.499 43.272 549.965 43.272C549.133 43.272 548.408 43.4107 547.789 43.688C547.171 43.944 546.648 44.3173 546.221 44.808C545.795 45.2987 545.464 45.9067 545.229 46.632C545.016 47.3573 544.909 48.2 544.909 49.16C544.909 51.016 545.347 52.488 546.221 53.576C547.096 54.6427 548.344 55.176 549.965 55.176C550.499 55.176 551.043 55.0907 551.597 54.92C552.173 54.7493 552.749 54.4507 553.325 54.024C553.56 53.8533 553.784 53.7787 553.997 53.8C554.211 53.8213 554.392 53.9067 554.541 54.056C554.691 54.184 554.787 54.3547 554.829 54.568C554.893 54.7813 554.893 54.9947 554.829 55.208C554.765 55.4 554.627 55.5707 554.413 55.72C553.731 56.2747 552.984 56.68 552.173 56.936C551.363 57.1707 550.573 57.288 549.805 57.288ZM564.177 57.288C562.663 57.288 561.351 56.9573 560.241 56.296C559.132 55.6347 558.268 54.7067 557.649 53.512C557.052 52.296 556.753 50.8667 556.753 49.224C556.753 47.9867 556.924 46.8773 557.265 45.896C557.607 44.8933 558.108 44.04 558.769 43.336C559.431 42.632 560.209 42.0987 561.105 41.736C562.023 41.352 563.047 41.16 564.177 41.16C565.692 41.16 567.004 41.4907 568.113 42.152C569.223 42.8133 570.076 43.752 570.673 44.968C571.292 46.1627 571.601 47.5813 571.601 49.224C571.601 50.4613 571.431 51.5707 571.089 52.552C570.748 53.5333 570.247 54.3867 569.585 55.112C568.924 55.816 568.135 56.36 567.217 56.744C566.321 57.1067 565.308 57.288 564.177 57.288ZM564.177 55.208C565.137 55.208 565.98 54.9733 566.705 54.504C567.431 54.0347 567.985 53.352 568.369 52.456C568.775 51.56 568.977 50.4827 568.977 49.224C568.977 47.2827 568.54 45.8 567.665 44.776C566.812 43.752 565.649 43.24 564.177 43.24C563.196 43.24 562.343 43.4747 561.617 43.944C560.913 44.392 560.359 45.064 559.953 45.96C559.569 46.8347 559.377 47.9227 559.377 49.224C559.377 51.144 559.815 52.6267 560.689 53.672C561.564 54.696 562.727 55.208 564.177 55.208ZM576.839 57.224C576.412 57.224 576.092 57.1067 575.879 56.872C575.665 56.6373 575.559 56.3067 575.559 55.88V42.536C575.559 42.1093 575.665 41.7893 575.879 41.576C576.092 41.3413 576.401 41.224 576.807 41.224C577.212 41.224 577.521 41.3413 577.735 41.576C577.969 41.7893 578.087 42.1093 578.087 42.536V45.352L577.735 44.904C578.14 43.7093 578.791 42.792 579.687 42.152C580.604 41.4907 581.692 41.16 582.951 41.16C584.273 41.16 585.34 41.48 586.151 42.12C586.983 42.7387 587.537 43.7093 587.815 45.032H587.335C587.719 43.8373 588.401 42.8987 589.383 42.216C590.385 41.512 591.548 41.16 592.871 41.16C594.044 41.16 595.004 41.384 595.751 41.832C596.519 42.28 597.095 42.9627 597.479 43.88C597.863 44.776 598.055 45.9173 598.055 47.304V55.88C598.055 56.3067 597.937 56.6373 597.703 56.872C597.489 57.1067 597.169 57.224 596.743 57.224C596.337 57.224 596.017 57.1067 595.783 56.872C595.569 56.6373 595.463 56.3067 595.463 55.88V47.432C595.463 46.0027 595.217 44.9573 594.727 44.296C594.236 43.6133 593.404 43.272 592.231 43.272C590.951 43.272 589.937 43.72 589.191 44.616C588.465 45.4907 588.103 46.6853 588.103 48.2V55.88C588.103 56.3067 587.985 56.6373 587.751 56.872C587.537 57.1067 587.217 57.224 586.791 57.224C586.385 57.224 586.065 57.1067 585.831 56.872C585.617 56.6373 585.511 56.3067 585.511 55.88V47.432C585.511 46.0027 585.255 44.9573 584.743 44.296C584.252 43.6133 583.431 43.272 582.279 43.272C580.999 43.272 579.985 43.72 579.239 44.616C578.513 45.4907 578.151 46.6853 578.151 48.2V55.88C578.151 56.776 577.713 57.224 576.839 57.224Z" fill="#C7C2C2"/>
<path d="M155.096 178.224C154.669 178.224 154.339 178.107 154.104 177.872C153.891 177.616 153.784 177.275 153.784 176.848V156.592C153.784 156.144 153.891 155.803 154.104 155.568C154.339 155.333 154.669 155.216 155.096 155.216C155.523 155.216 155.843 155.333 156.056 155.568C156.291 155.803 156.408 156.144 156.408 156.592V176.848C156.408 177.275 156.301 177.616 156.088 177.872C155.875 178.107 155.544 178.224 155.096 178.224ZM162.931 178.224C162.504 178.224 162.184 178.107 161.971 177.872C161.757 177.637 161.651 177.307 161.651 176.88V163.536C161.651 163.109 161.757 162.789 161.971 162.576C162.184 162.341 162.493 162.224 162.899 162.224C163.304 162.224 163.613 162.341 163.827 162.576C164.061 162.789 164.179 163.109 164.179 163.536V166.288L163.827 165.904C164.275 164.667 165 163.739 166.003 163.12C167.027 162.48 168.2 162.16 169.523 162.16C170.76 162.16 171.784 162.384 172.595 162.832C173.427 163.28 174.045 163.963 174.451 164.88C174.856 165.776 175.059 166.917 175.059 168.304V176.88C175.059 177.307 174.941 177.637 174.707 177.872C174.493 178.107 174.184 178.224 173.779 178.224C173.352 178.224 173.021 178.107 172.787 177.872C172.573 177.637 172.467 177.307 172.467 176.88V168.464C172.467 167.013 172.179 165.957 171.603 165.296C171.048 164.613 170.152 164.272 168.915 164.272C167.485 164.272 166.344 164.72 165.491 165.616C164.659 166.491 164.243 167.664 164.243 169.136V176.88C164.243 177.776 163.805 178.224 162.931 178.224ZM185.086 178.288C184.126 178.288 183.156 178.171 182.174 177.936C181.214 177.701 180.318 177.296 179.486 176.72C179.273 176.571 179.124 176.4 179.038 176.208C178.953 175.995 178.921 175.792 178.942 175.6C178.985 175.387 179.07 175.205 179.198 175.056C179.348 174.907 179.518 174.821 179.71 174.8C179.924 174.757 180.158 174.8 180.414 174.928C181.246 175.44 182.046 175.803 182.814 176.016C183.604 176.208 184.382 176.304 185.15 176.304C186.366 176.304 187.284 176.08 187.902 175.632C188.521 175.184 188.83 174.576 188.83 173.808C188.83 173.211 188.628 172.741 188.222 172.4C187.817 172.037 187.177 171.76 186.302 171.568L183.39 170.928C182.046 170.651 181.044 170.171 180.382 169.488C179.742 168.805 179.422 167.92 179.422 166.832C179.422 165.872 179.668 165.051 180.158 164.368C180.67 163.664 181.385 163.12 182.302 162.736C183.22 162.352 184.286 162.16 185.502 162.16C186.441 162.16 187.326 162.288 188.158 162.544C189.012 162.779 189.78 163.163 190.462 163.696C190.676 163.845 190.814 164.027 190.878 164.24C190.964 164.432 190.974 164.635 190.91 164.848C190.868 165.04 190.772 165.211 190.622 165.36C190.473 165.488 190.292 165.563 190.078 165.584C189.865 165.605 189.641 165.541 189.406 165.392C188.766 164.965 188.116 164.656 187.454 164.464C186.793 164.251 186.142 164.144 185.502 164.144C184.308 164.144 183.401 164.379 182.782 164.848C182.164 165.317 181.854 165.936 181.854 166.704C181.854 167.301 182.046 167.792 182.43 168.176C182.814 168.56 183.412 168.837 184.222 169.008L187.134 169.616C188.521 169.915 189.556 170.395 190.238 171.056C190.942 171.696 191.294 172.571 191.294 173.68C191.294 175.088 190.729 176.208 189.598 177.04C188.468 177.872 186.964 178.288 185.086 178.288ZM201.328 178.288C200.112 178.288 199.088 178.075 198.256 177.648C197.446 177.2 196.838 176.56 196.432 175.728C196.027 174.875 195.824 173.84 195.824 172.624V164.464H193.68C193.318 164.464 193.04 164.379 192.848 164.208C192.656 164.016 192.56 163.76 192.56 163.44C192.56 163.12 192.656 162.875 192.848 162.704C193.04 162.533 193.318 162.448 193.68 162.448H195.824V158.768C195.824 158.341 195.942 158.021 196.176 157.808C196.411 157.573 196.731 157.456 197.136 157.456C197.542 157.456 197.851 157.573 198.064 157.808C198.299 158.021 198.416 158.341 198.416 158.768V162.448H202.448C202.811 162.448 203.088 162.533 203.28 162.704C203.472 162.875 203.568 163.12 203.568 163.44C203.568 163.76 203.472 164.016 203.28 164.208C203.088 164.379 202.811 164.464 202.448 164.464H198.416V172.368C198.416 173.584 198.672 174.512 199.184 175.152C199.696 175.771 200.528 176.08 201.68 176.08C202.086 176.08 202.427 176.037 202.704 175.952C203.003 175.867 203.248 175.824 203.44 175.824C203.632 175.803 203.792 175.867 203.92 176.016C204.048 176.165 204.112 176.421 204.112 176.784C204.112 177.04 204.059 177.275 203.952 177.488C203.867 177.701 203.707 177.851 203.472 177.936C203.216 178.021 202.875 178.096 202.448 178.16C202.043 178.245 201.67 178.288 201.328 178.288ZM211.172 178.288C210.105 178.288 209.145 178.085 208.292 177.68C207.46 177.253 206.798 176.677 206.308 175.952C205.817 175.227 205.572 174.416 205.572 173.52C205.572 172.368 205.86 171.461 206.436 170.8C207.033 170.139 208.004 169.669 209.348 169.392C210.713 169.115 212.569 168.976 214.916 168.976H216.356V170.672H214.948C213.22 170.672 211.854 170.757 210.852 170.928C209.87 171.077 209.177 171.344 208.772 171.728C208.388 172.112 208.196 172.656 208.196 173.36C208.196 174.235 208.494 174.949 209.092 175.504C209.71 176.059 210.542 176.336 211.588 176.336C212.441 176.336 213.188 176.133 213.828 175.728C214.489 175.323 215.001 174.768 215.364 174.064C215.748 173.36 215.94 172.549 215.94 171.632V167.984C215.94 166.661 215.673 165.712 215.14 165.136C214.606 164.539 213.732 164.24 212.516 164.24C211.769 164.24 211.022 164.336 210.276 164.528C209.529 164.72 208.74 165.029 207.908 165.456C207.609 165.605 207.353 165.659 207.14 165.616C206.926 165.552 206.756 165.435 206.628 165.264C206.5 165.093 206.425 164.901 206.404 164.688C206.382 164.453 206.425 164.229 206.532 164.016C206.66 163.803 206.852 163.632 207.108 163.504C208.046 163.035 208.974 162.693 209.892 162.48C210.809 162.267 211.684 162.16 212.516 162.16C213.86 162.16 214.969 162.384 215.844 162.832C216.718 163.259 217.369 163.92 217.796 164.816C218.222 165.691 218.436 166.821 218.436 168.208V176.88C218.436 177.307 218.329 177.637 218.116 177.872C217.924 178.107 217.636 178.224 217.252 178.224C216.846 178.224 216.537 178.107 216.324 177.872C216.11 177.637 216.004 177.307 216.004 176.88V174.384H216.292C216.121 175.195 215.79 175.888 215.3 176.464C214.83 177.04 214.244 177.488 213.54 177.808C212.836 178.128 212.046 178.288 211.172 178.288ZM230.125 184.048C228.994 184.048 227.885 183.909 226.797 183.632C225.73 183.376 224.759 182.96 223.885 182.384C223.629 182.235 223.458 182.053 223.373 181.84C223.309 181.627 223.298 181.413 223.341 181.2C223.383 181.008 223.479 180.827 223.629 180.656C223.778 180.507 223.949 180.411 224.141 180.368C224.354 180.325 224.567 180.357 224.781 180.464C225.719 181.04 226.615 181.435 227.469 181.648C228.322 181.861 229.165 181.968 229.997 181.968C231.511 181.968 232.653 181.563 233.421 180.752C234.21 179.941 234.605 178.768 234.605 177.232V173.616H234.925C234.605 174.853 233.922 175.835 232.877 176.56C231.853 177.285 230.647 177.648 229.26 177.648C227.831 177.648 226.594 177.328 225.549 176.688C224.503 176.027 223.693 175.109 223.117 173.936C222.562 172.763 222.285 171.408 222.285 169.872C222.285 168.72 222.445 167.675 222.765 166.736C223.085 165.776 223.543 164.965 224.141 164.304C224.759 163.621 225.495 163.099 226.349 162.736C227.223 162.352 228.194 162.16 229.26 162.16C230.669 162.16 231.885 162.523 232.909 163.248C233.933 163.952 234.594 164.912 234.893 166.128L234.573 166.512V163.536C234.573 163.109 234.679 162.789 234.893 162.576C235.127 162.341 235.447 162.224 235.853 162.224C236.279 162.224 236.599 162.341 236.812 162.576C237.026 162.789 237.133 163.109 237.133 163.536V176.88C237.133 179.248 236.535 181.029 235.341 182.224C234.167 183.44 232.429 184.048 230.125 184.048ZM229.741 175.536C230.743 175.536 231.607 175.312 232.333 174.864C233.058 174.395 233.613 173.733 233.997 172.88C234.402 172.027 234.605 171.024 234.605 169.872C234.605 168.144 234.167 166.779 233.293 165.776C232.418 164.752 231.234 164.24 229.741 164.24C228.759 164.24 227.906 164.475 227.181 164.944C226.455 165.392 225.89 166.043 225.485 166.896C225.101 167.728 224.909 168.72 224.909 169.872C224.909 171.6 225.346 172.976 226.221 174C227.095 175.024 228.269 175.536 229.741 175.536ZM243.307 178.224C242.88 178.224 242.549 178.107 242.315 177.872C242.101 177.637 241.995 177.307 241.995 176.88V163.536C241.995 163.109 242.101 162.789 242.315 162.576C242.528 162.341 242.837 162.224 243.243 162.224C243.648 162.224 243.957 162.341 244.171 162.576C244.405 162.789 244.523 163.109 244.523 163.536V166.128H244.203C244.544 164.869 245.195 163.899 246.155 163.216C247.115 162.533 248.299 162.171 249.707 162.128C250.027 162.107 250.283 162.181 250.475 162.352C250.667 162.501 250.773 162.768 250.795 163.152C250.816 163.515 250.731 163.803 250.539 164.016C250.347 164.229 250.048 164.357 249.643 164.4L249.131 164.464C247.68 164.592 246.56 165.061 245.771 165.872C245.003 166.661 244.619 167.749 244.619 169.136V176.88C244.619 177.307 244.501 177.637 244.266 177.872C244.053 178.107 243.733 178.224 243.307 178.224ZM258.203 178.288C257.136 178.288 256.176 178.085 255.323 177.68C254.491 177.253 253.83 176.677 253.339 175.952C252.848 175.227 252.603 174.416 252.603 173.52C252.603 172.368 252.891 171.461 253.467 170.8C254.064 170.139 255.035 169.669 256.379 169.392C257.744 169.115 259.6 168.976 261.947 168.976H263.387V170.672H261.979C260.251 170.672 258.886 170.757 257.883 170.928C256.902 171.077 256.208 171.344 255.803 171.728C255.419 172.112 255.227 172.656 255.227 173.36C255.227 174.235 255.526 174.949 256.123 175.504C256.742 176.059 257.574 176.336 258.619 176.336C259.472 176.336 260.219 176.133 260.859 175.728C261.52 175.323 262.032 174.768 262.395 174.064C262.779 173.36 262.971 172.549 262.971 171.632V167.984C262.971 166.661 262.704 165.712 262.171 165.136C261.638 164.539 260.763 164.24 259.547 164.24C258.8 164.24 258.054 164.336 257.307 164.528C256.56 164.72 255.771 165.029 254.939 165.456C254.64 165.605 254.384 165.659 254.171 165.616C253.958 165.552 253.787 165.435 253.659 165.264C253.531 165.093 253.456 164.901 253.435 164.688C253.414 164.453 253.456 164.229 253.563 164.016C253.691 163.803 253.883 163.632 254.139 163.504C255.078 163.035 256.006 162.693 256.923 162.48C257.84 162.267 258.715 162.16 259.547 162.16C260.891 162.16 262 162.384 262.875 162.832C263.75 163.259 264.4 163.92 264.827 164.816C265.254 165.691 265.467 166.821 265.467 168.208V176.88C265.467 177.307 265.36 177.637 265.147 177.872C264.955 178.107 264.667 178.224 264.283 178.224C263.878 178.224 263.568 178.107 263.355 177.872C263.142 177.637 263.035 177.307 263.035 176.88V174.384H263.323C263.152 175.195 262.822 175.888 262.331 176.464C261.862 177.04 261.275 177.488 260.571 177.808C259.867 178.128 259.078 178.288 258.203 178.288ZM271.62 178.224C271.193 178.224 270.873 178.107 270.66 177.872C270.446 177.637 270.34 177.307 270.34 176.88V163.536C270.34 163.109 270.446 162.789 270.66 162.576C270.873 162.341 271.182 162.224 271.588 162.224C271.993 162.224 272.302 162.341 272.516 162.576C272.75 162.789 272.868 163.109 272.868 163.536V166.352L272.516 165.904C272.921 164.709 273.572 163.792 274.468 163.152C275.385 162.491 276.473 162.16 277.732 162.16C279.054 162.16 280.121 162.48 280.932 163.12C281.764 163.739 282.318 164.709 282.596 166.032H282.116C282.5 164.837 283.182 163.899 284.164 163.216C285.166 162.512 286.329 162.16 287.652 162.16C288.825 162.16 289.785 162.384 290.532 162.832C291.3 163.28 291.876 163.963 292.26 164.88C292.644 165.776 292.836 166.917 292.836 168.304V176.88C292.836 177.307 292.718 177.637 292.484 177.872C292.27 178.107 291.95 178.224 291.524 178.224C291.118 178.224 290.798 178.107 290.564 177.872C290.35 177.637 290.244 177.307 290.244 176.88V168.432C290.244 167.003 289.998 165.957 289.508 165.296C289.017 164.613 288.185 164.272 287.012 164.272C285.732 164.272 284.718 164.72 283.972 165.616C283.246 166.491 282.884 167.685 282.884 169.2V176.88C282.884 177.307 282.766 177.637 282.532 177.872C282.318 178.107 281.998 178.224 281.572 178.224C281.166 178.224 280.846 178.107 280.612 177.872C280.398 177.637 280.292 177.307 280.292 176.88V168.432C280.292 167.003 280.036 165.957 279.524 165.296C279.033 164.613 278.212 164.272 277.06 164.272C275.78 164.272 274.766 164.72 274.02 165.616C273.294 166.491 272.932 167.685 272.932 169.2V176.88C272.932 177.776 272.494 178.224 271.62 178.224ZM307.18 178.128C306.647 178.128 306.22 177.968 305.9 177.648C305.58 177.307 305.42 176.88 305.42 176.368C305.42 175.856 305.58 175.44 305.9 175.12C306.22 174.779 306.647 174.608 307.18 174.608C307.713 174.608 308.129 174.779 308.428 175.12C308.748 175.44 308.908 175.856 308.908 176.368C308.908 176.88 308.748 177.307 308.428 177.648C308.129 177.968 307.713 178.128 307.18 178.128ZM307.18 165.84C306.647 165.84 306.22 165.669 305.9 165.328C305.58 164.987 305.42 164.571 305.42 164.08C305.42 163.547 305.58 163.12 305.9 162.8C306.22 162.48 306.647 162.32 307.18 162.32C307.713 162.32 308.129 162.48 308.428 162.8C308.748 163.12 308.908 163.547 308.908 164.08C308.908 164.571 308.748 164.987 308.428 165.328C308.129 165.669 307.713 165.84 307.18 165.84ZM334.551 183.216C332.503 183.216 330.647 182.885 328.983 182.224C327.319 181.584 325.89 180.656 324.695 179.44C323.501 178.224 322.583 176.763 321.943 175.056C321.303 173.328 320.983 171.397 320.983 169.264C320.983 167.173 321.314 165.264 321.975 163.536C322.658 161.808 323.618 160.325 324.855 159.088C326.114 157.829 327.597 156.859 329.303 156.176C331.01 155.493 332.898 155.152 334.967 155.152C337.442 155.152 339.607 155.653 341.463 156.656C343.319 157.637 344.759 159.013 345.783 160.784C346.829 162.555 347.351 164.624 347.351 166.992C347.351 168.848 347.095 170.459 346.583 171.824C346.071 173.189 345.357 174.245 344.439 174.992C343.543 175.739 342.487 176.112 341.271 176.112C339.991 176.112 339.021 175.749 338.359 175.024C337.719 174.277 337.442 173.275 337.527 172.016L338.135 172.176C337.602 173.456 336.845 174.437 335.863 175.12C334.882 175.781 333.847 176.112 332.759 176.112C331.117 176.112 329.837 175.6 328.919 174.576C328.023 173.531 327.575 172.101 327.575 170.288C327.575 168.731 327.874 167.344 328.471 166.128C329.069 164.891 329.89 163.92 330.935 163.216C331.981 162.512 333.165 162.16 334.487 162.16C335.639 162.16 336.589 162.448 337.335 163.024C338.082 163.6 338.562 164.411 338.775 165.456H338.423L338.775 163.312C338.882 162.629 339.277 162.288 339.959 162.288C340.322 162.288 340.578 162.395 340.727 162.608C340.898 162.8 340.951 163.088 340.887 163.472L339.607 170.736C339.565 171.013 339.533 171.28 339.511 171.536C339.49 171.792 339.479 172.027 339.479 172.24C339.479 172.944 339.639 173.477 339.959 173.84C340.279 174.203 340.759 174.384 341.399 174.384C342.231 174.384 342.946 174.075 343.543 173.456C344.162 172.837 344.642 171.973 344.983 170.864C345.346 169.755 345.527 168.464 345.527 166.992C345.527 164.965 345.079 163.205 344.183 161.712C343.309 160.219 342.082 159.056 340.503 158.224C338.925 157.392 337.069 156.976 334.935 156.976C332.567 156.976 330.487 157.488 328.695 158.512C326.903 159.536 325.506 160.976 324.503 162.832C323.501 164.667 322.999 166.811 322.999 169.264C322.999 171.803 323.469 173.979 324.407 175.792C325.367 177.605 326.711 178.992 328.439 179.952C330.167 180.933 332.205 181.424 334.551 181.424C336.109 181.424 337.527 181.2 338.807 180.752C340.087 180.304 341.165 179.696 342.039 178.928C342.338 178.693 342.615 178.587 342.871 178.608C343.127 178.651 343.33 178.768 343.479 178.96C343.629 179.152 343.682 179.376 343.639 179.632C343.618 179.888 343.469 180.144 343.191 180.4C342.21 181.253 340.973 181.936 339.479 182.448C338.007 182.96 336.365 183.216 334.551 183.216ZM333.047 174.256C334.007 174.256 334.85 173.968 335.575 173.392C336.322 172.816 336.909 172.027 337.335 171.024C337.762 170.021 337.975 168.88 337.975 167.6C337.975 166.405 337.709 165.509 337.175 164.912C336.642 164.315 335.821 164.016 334.711 164.016C333.773 164.016 332.93 164.283 332.183 164.816C331.437 165.349 330.839 166.085 330.391 167.024C329.965 167.963 329.751 169.051 329.751 170.288C329.751 171.568 330.039 172.549 330.615 173.232C331.191 173.915 332.002 174.256 333.047 174.256ZM353.025 178.224C352.598 178.224 352.278 178.107 352.065 177.872C351.851 177.637 351.745 177.307 351.745 176.88V163.536C351.745 163.109 351.851 162.789 352.065 162.576C352.278 162.341 352.587 162.224 352.993 162.224C353.398 162.224 353.707 162.341 353.921 162.576C354.155 162.789 354.273 163.109 354.273 163.536V166.288L353.921 165.904C354.369 164.667 355.094 163.739 356.097 163.12C357.121 162.48 358.294 162.16 359.617 162.16C360.854 162.16 361.878 162.384 362.689 162.832C363.521 163.28 364.139 163.963 364.545 164.88C364.95 165.776 365.153 166.917 365.153 168.304V176.88C365.153 177.307 365.035 177.637 364.801 177.872C364.587 178.107 364.278 178.224 363.873 178.224C363.446 178.224 363.115 178.107 362.881 177.872C362.667 177.637 362.561 177.307 362.561 176.88V168.464C362.561 167.013 362.273 165.957 361.697 165.296C361.142 164.613 360.246 164.272 359.009 164.272C357.579 164.272 356.438 164.72 355.585 165.616C354.753 166.491 354.337 167.664 354.337 169.136V176.88C354.337 177.776 353.899 178.224 353.025 178.224ZM374.828 178.288C373.761 178.288 372.801 178.085 371.948 177.68C371.116 177.253 370.455 176.677 369.964 175.952C369.473 175.227 369.228 174.416 369.228 173.52C369.228 172.368 369.516 171.461 370.092 170.8C370.689 170.139 371.66 169.669 373.004 169.392C374.369 169.115 376.225 168.976 378.572 168.976H380.012V170.672H378.604C376.876 170.672 375.511 170.757 374.508 170.928C373.527 171.077 372.833 171.344 372.428 171.728C372.044 172.112 371.852 172.656 371.852 173.36C371.852 174.235 372.151 174.949 372.748 175.504C373.367 176.059 374.199 176.336 375.244 176.336C376.097 176.336 376.844 176.133 377.484 175.728C378.145 175.323 378.657 174.768 379.02 174.064C379.404 173.36 379.596 172.549 379.596 171.632V167.984C379.596 166.661 379.329 165.712 378.796 165.136C378.263 164.539 377.388 164.24 376.172 164.24C375.425 164.24 374.679 164.336 373.932 164.528C373.185 164.72 372.396 165.029 371.564 165.456C371.265 165.605 371.009 165.659 370.796 165.616C370.583 165.552 370.412 165.435 370.284 165.264C370.156 165.093 370.081 164.901 370.06 164.688C370.039 164.453 370.081 164.229 370.188 164.016C370.316 163.803 370.508 163.632 370.764 163.504C371.703 163.035 372.631 162.693 373.548 162.48C374.465 162.267 375.34 162.16 376.172 162.16C377.516 162.16 378.625 162.384 379.5 162.832C380.375 163.259 381.025 163.92 381.452 164.816C381.879 165.691 382.092 166.821 382.092 168.208V176.88C382.092 177.307 381.985 177.637 381.772 177.872C381.58 178.107 381.292 178.224 380.908 178.224C380.503 178.224 380.193 178.107 379.98 177.872C379.767 177.637 379.66 177.307 379.66 176.88V174.384H379.948C379.777 175.195 379.447 175.888 378.956 176.464C378.487 177.04 377.9 177.488 377.196 177.808C376.492 178.128 375.703 178.288 374.828 178.288ZM388.245 178.224C387.818 178.224 387.498 178.107 387.285 177.872C387.071 177.637 386.965 177.307 386.965 176.88V163.536C386.965 163.109 387.071 162.789 387.285 162.576C387.498 162.341 387.807 162.224 388.213 162.224C388.618 162.224 388.927 162.341 389.141 162.576C389.375 162.789 389.493 163.109 389.493 163.536V166.352L389.141 165.904C389.546 164.709 390.197 163.792 391.093 163.152C392.01 162.491 393.098 162.16 394.357 162.16C395.679 162.16 396.746 162.48 397.557 163.12C398.389 163.739 398.943 164.709 399.221 166.032H398.741C399.125 164.837 399.807 163.899 400.789 163.216C401.791 162.512 402.954 162.16 404.277 162.16C405.45 162.16 406.41 162.384 407.157 162.832C407.925 163.28 408.501 163.963 408.885 164.88C409.269 165.776 409.461 166.917 409.461 168.304V176.88C409.461 177.307 409.343 177.637 409.109 177.872C408.895 178.107 408.575 178.224 408.149 178.224C407.743 178.224 407.423 178.107 407.189 177.872C406.975 177.637 406.869 177.307 406.869 176.88V168.432C406.869 167.003 406.623 165.957 406.133 165.296C405.642 164.613 404.81 164.272 403.637 164.272C402.357 164.272 401.343 164.72 400.597 165.616C399.871 166.491 399.509 167.685 399.509 169.2V176.88C399.509 177.307 399.391 177.637 399.157 177.872C398.943 178.107 398.623 178.224 398.197 178.224C397.791 178.224 397.471 178.107 397.237 177.872C397.023 177.637 396.917 177.307 396.917 176.88V168.432C396.917 167.003 396.661 165.957 396.149 165.296C395.658 164.613 394.837 164.272 393.685 164.272C392.405 164.272 391.391 164.72 390.645 165.616C389.919 166.491 389.557 167.685 389.557 169.2V176.88C389.557 177.776 389.119 178.224 388.245 178.224ZM419.203 178.288C418.136 178.288 417.176 178.085 416.323 177.68C415.491 177.253 414.83 176.677 414.339 175.952C413.848 175.227 413.603 174.416 413.603 173.52C413.603 172.368 413.891 171.461 414.467 170.8C415.064 170.139 416.035 169.669 417.379 169.392C418.744 169.115 420.6 168.976 422.947 168.976H424.387V170.672H422.979C421.251 170.672 419.886 170.757 418.883 170.928C417.902 171.077 417.208 171.344 416.803 171.728C416.419 172.112 416.227 172.656 416.227 173.36C416.227 174.235 416.526 174.949 417.123 175.504C417.742 176.059 418.574 176.336 419.619 176.336C420.472 176.336 421.219 176.133 421.859 175.728C422.52 175.323 423.032 174.768 423.395 174.064C423.779 173.36 423.971 172.549 423.971 171.632V167.984C423.971 166.661 423.704 165.712 423.171 165.136C422.638 164.539 421.763 164.24 420.547 164.24C419.8 164.24 419.054 164.336 418.307 164.528C417.56 164.72 416.771 165.029 415.939 165.456C415.64 165.605 415.384 165.659 415.171 165.616C414.958 165.552 414.787 165.435 414.659 165.264C414.531 165.093 414.456 164.901 414.435 164.688C414.414 164.453 414.456 164.229 414.563 164.016C414.691 163.803 414.883 163.632 415.139 163.504C416.078 163.035 417.006 162.693 417.923 162.48C418.84 162.267 419.715 162.16 420.547 162.16C421.891 162.16 423 162.384 423.875 162.832C424.75 163.259 425.4 163.92 425.827 164.816C426.254 165.691 426.467 166.821 426.467 168.208V176.88C426.467 177.307 426.36 177.637 426.147 177.872C425.955 178.107 425.667 178.224 425.283 178.224C424.878 178.224 424.568 178.107 424.355 177.872C424.142 177.637 424.035 177.307 424.035 176.88V174.384H424.323C424.152 175.195 423.822 175.888 423.331 176.464C422.862 177.04 422.275 177.488 421.571 177.808C420.867 178.128 420.078 178.288 419.203 178.288ZM432.556 178.224C432.129 178.224 431.809 178.107 431.596 177.872C431.382 177.637 431.276 177.307 431.276 176.88V156.528C431.276 156.101 431.382 155.781 431.596 155.568C431.809 155.333 432.129 155.216 432.556 155.216C432.961 155.216 433.281 155.333 433.516 155.568C433.75 155.781 433.868 156.101 433.868 156.528V169.36H433.932L440.492 163.088C440.79 162.811 441.046 162.597 441.26 162.448C441.494 162.299 441.804 162.224 442.188 162.224C442.529 162.224 442.796 162.32 442.988 162.512C443.18 162.683 443.265 162.907 443.244 163.184C443.244 163.44 443.116 163.717 442.86 164.016L435.884 170.64V169.232L443.468 176.368C443.766 176.667 443.916 176.955 443.916 177.232C443.916 177.509 443.809 177.744 443.596 177.936C443.404 178.128 443.148 178.224 442.828 178.224C442.444 178.224 442.134 178.149 441.9 178C441.665 177.829 441.377 177.584 441.036 177.264L433.932 170.704H433.868V176.88C433.868 177.776 433.43 178.224 432.556 178.224ZM453.334 178.288C451.819 178.288 450.507 177.957 449.398 177.296C448.288 176.635 447.424 175.707 446.806 174.512C446.208 173.296 445.91 171.867 445.91 170.224C445.91 168.987 446.08 167.877 446.422 166.896C446.763 165.893 447.264 165.04 447.926 164.336C448.587 163.632 449.366 163.099 450.262 162.736C451.179 162.352 452.203 162.16 453.334 162.16C454.848 162.16 456.16 162.491 457.27 163.152C458.379 163.813 459.232 164.752 459.83 165.968C460.448 167.163 460.758 168.581 460.758 170.224C460.758 171.461 460.587 172.571 460.246 173.552C459.904 174.533 459.403 175.387 458.742 176.112C458.08 176.816 457.291 177.36 456.374 177.744C455.478 178.107 454.464 178.288 453.334 178.288ZM453.334 176.208C454.294 176.208 455.136 175.973 455.862 175.504C456.587 175.035 457.142 174.352 457.526 173.456C457.931 172.56 458.134 171.483 458.134 170.224C458.134 168.283 457.696 166.8 456.822 165.776C455.968 164.752 454.806 164.24 453.334 164.24C452.352 164.24 451.499 164.475 450.774 164.944C450.07 165.392 449.515 166.064 449.11 166.96C448.726 167.835 448.534 168.923 448.534 170.224C448.534 172.144 448.971 173.627 449.846 174.672C450.72 175.696 451.883 176.208 453.334 176.208ZM465.931 178.224C465.504 178.224 465.184 178.107 464.971 177.872C464.757 177.637 464.651 177.307 464.651 176.88V156.528C464.651 156.101 464.757 155.781 464.971 155.568C465.184 155.333 465.504 155.216 465.931 155.216C466.336 155.216 466.656 155.333 466.891 155.568C467.125 155.781 467.243 156.101 467.243 156.528V169.36H467.307L473.867 163.088C474.165 162.811 474.421 162.597 474.635 162.448C474.869 162.299 475.179 162.224 475.563 162.224C475.904 162.224 476.171 162.32 476.363 162.512C476.555 162.683 476.64 162.907 476.619 163.184C476.619 163.44 476.491 163.717 476.235 164.016L469.259 170.64V169.232L476.843 176.368C477.141 176.667 477.291 176.955 477.291 177.232C477.291 177.509 477.184 177.744 476.971 177.936C476.779 178.128 476.523 178.224 476.203 178.224C475.819 178.224 475.509 178.149 475.275 178C475.04 177.829 474.752 177.584 474.411 177.264L467.307 170.704H467.243V176.88C467.243 177.776 466.805 178.224 465.931 178.224ZM486.165 178.288C484.778 178.288 483.562 177.957 482.516 177.296C481.493 176.635 480.693 175.707 480.117 174.512C479.562 173.296 479.285 171.867 479.285 170.224C479.285 168.56 479.562 167.131 480.117 165.936C480.693 164.72 481.493 163.792 482.516 163.152C483.562 162.491 484.778 162.16 486.165 162.16C487.573 162.16 488.778 162.512 489.781 163.216C490.783 163.92 491.455 164.869 491.797 166.064H491.445V156.528C491.445 156.101 491.551 155.781 491.765 155.568C491.999 155.333 492.33 155.216 492.757 155.216C493.162 155.216 493.471 155.333 493.685 155.568C493.919 155.781 494.037 156.101 494.037 156.528V176.88C494.037 177.307 493.93 177.637 493.717 177.872C493.503 178.107 493.183 178.224 492.757 178.224C492.351 178.224 492.031 178.107 491.797 177.872C491.583 177.637 491.477 177.307 491.477 176.88V173.84L491.829 174.288C491.487 175.504 490.805 176.475 489.781 177.2C488.778 177.925 487.573 178.288 486.165 178.288ZM486.709 176.208C487.669 176.208 488.511 175.973 489.237 175.504C489.962 175.035 490.517 174.352 490.901 173.456C491.306 172.56 491.509 171.483 491.509 170.224C491.509 168.283 491.071 166.8 490.197 165.776C489.343 164.752 488.181 164.24 486.709 164.24C485.727 164.24 484.874 164.475 484.149 164.944C483.445 165.392 482.89 166.064 482.485 166.96C482.101 167.835 481.909 168.923 481.909 170.224C481.909 172.144 482.346 173.627 483.221 174.672C484.095 175.696 485.258 176.208 486.709 176.208ZM505.909 178.288C504.266 178.288 502.847 177.968 501.653 177.328C500.479 176.667 499.562 175.739 498.901 174.544C498.261 173.349 497.941 171.92 497.941 170.256C497.941 168.635 498.261 167.227 498.901 166.032C499.541 164.816 500.415 163.867 501.525 163.184C502.655 162.501 503.957 162.16 505.429 162.16C506.474 162.16 507.413 162.341 508.245 162.704C509.077 163.045 509.781 163.547 510.357 164.208C510.954 164.869 511.402 165.669 511.701 166.608C512.021 167.547 512.181 168.603 512.181 169.776C512.181 170.117 512.085 170.373 511.893 170.544C511.701 170.693 511.423 170.768 511.061 170.768H499.925V169.072H510.453L509.941 169.488C509.941 168.336 509.77 167.365 509.429 166.576C509.087 165.765 508.586 165.147 507.925 164.72C507.285 164.293 506.474 164.08 505.493 164.08C504.405 164.08 503.477 164.336 502.709 164.848C501.962 165.339 501.397 166.032 501.013 166.928C500.629 167.803 500.437 168.827 500.437 170V170.192C500.437 172.155 500.906 173.648 501.845 174.672C502.805 175.696 504.159 176.208 505.909 176.208C506.634 176.208 507.349 176.112 508.053 175.92C508.778 175.728 509.482 175.408 510.165 174.96C510.463 174.768 510.73 174.683 510.965 174.704C511.221 174.704 511.423 174.779 511.573 174.928C511.722 175.056 511.818 175.227 511.861 175.44C511.925 175.632 511.903 175.845 511.797 176.08C511.711 176.315 511.53 176.517 511.253 176.688C510.549 177.2 509.717 177.595 508.757 177.872C507.797 178.149 506.847 178.288 505.909 178.288ZM517.212 183.984C516.785 183.984 516.465 183.867 516.252 183.632C516.039 183.419 515.932 183.099 515.932 182.672V163.536C515.932 163.109 516.039 162.789 516.252 162.576C516.465 162.341 516.775 162.224 517.18 162.224C517.607 162.224 517.927 162.341 518.14 162.576C518.375 162.789 518.492 163.109 518.492 163.536V166.576L518.14 166.128C518.481 164.912 519.153 163.952 520.156 163.248C521.18 162.523 522.396 162.16 523.804 162.16C525.191 162.16 526.396 162.491 527.42 163.152C528.465 163.792 529.265 164.72 529.82 165.936C530.396 167.131 530.684 168.56 530.684 170.224C530.684 171.867 530.396 173.296 529.82 174.512C529.265 175.707 528.476 176.635 527.452 177.296C526.428 177.957 525.212 178.288 523.804 178.288C522.396 178.288 521.191 177.936 520.188 177.232C519.185 176.507 518.503 175.547 518.14 174.352H518.524V182.672C518.524 183.099 518.407 183.419 518.172 183.632C517.937 183.867 517.617 183.984 517.212 183.984ZM523.26 176.208C524.241 176.208 525.084 175.973 525.788 175.504C526.513 175.035 527.068 174.352 527.452 173.456C527.857 172.56 528.06 171.483 528.06 170.224C528.06 168.283 527.623 166.8 526.748 165.776C525.895 164.752 524.732 164.24 523.26 164.24C522.3 164.24 521.457 164.475 520.732 164.944C520.007 165.392 519.441 166.064 519.036 166.96C518.652 167.835 518.46 168.923 518.46 170.224C518.46 172.144 518.897 173.627 519.772 174.672C520.647 175.696 521.809 176.208 523.26 176.208ZM535.868 178.16C535.442 178.16 535.122 178.043 534.908 177.808C534.695 177.552 534.588 177.2 534.588 176.752V163.664C534.588 163.216 534.695 162.875 534.908 162.64C535.122 162.405 535.442 162.288 535.868 162.288C536.274 162.288 536.594 162.405 536.828 162.64C537.063 162.875 537.18 163.216 537.18 163.664V176.752C537.18 177.2 537.063 177.552 536.828 177.808C536.615 178.043 536.295 178.16 535.868 178.16ZM535.868 158.704C535.335 158.704 534.919 158.565 534.62 158.288C534.322 157.989 534.172 157.595 534.172 157.104C534.172 156.592 534.322 156.208 534.62 155.952C534.919 155.675 535.335 155.536 535.868 155.536C536.423 155.536 536.839 155.675 537.116 155.952C537.415 156.208 537.564 156.592 537.564 157.104C537.564 157.595 537.415 157.989 537.116 158.288C536.839 158.565 536.423 158.704 535.868 158.704Z" fill="#C7C2C2"/>
<path d="M156.016 301.224C155.632 301.224 155.323 301.128 155.088 300.936C154.853 300.723 154.661 300.413 154.512 300.008L147.44 279.816C147.291 279.368 147.323 278.995 147.536 278.696C147.771 278.376 148.133 278.216 148.624 278.216C148.987 278.216 149.275 278.312 149.488 278.504C149.701 278.675 149.883 278.952 150.032 279.336L156.656 298.76H155.536L162.288 279.432C162.437 279.027 162.619 278.728 162.832 278.536C163.045 278.323 163.333 278.216 163.696 278.216C164.037 278.216 164.304 278.323 164.496 278.536C164.709 278.728 164.891 279.027 165.04 279.432L171.696 298.76H170.704L177.392 279.336C177.499 278.973 177.659 278.696 177.872 278.504C178.107 278.312 178.405 278.216 178.768 278.216C179.216 278.216 179.547 278.365 179.76 278.664C179.973 278.963 179.995 279.347 179.824 279.816L172.72 300.008C172.571 300.413 172.379 300.723 172.144 300.936C171.931 301.128 171.621 301.224 171.216 301.224C170.832 301.224 170.523 301.128 170.288 300.936C170.075 300.723 169.883 300.413 169.712 300.008L163.28 281.48H163.984L157.488 300.008C157.339 300.413 157.157 300.723 156.944 300.936C156.731 301.128 156.421 301.224 156.016 301.224ZM185.681 301.224C185.254 301.224 184.934 301.107 184.721 300.872C184.507 300.637 184.401 300.307 184.401 299.88V279.528C184.401 279.101 184.507 278.781 184.721 278.568C184.934 278.333 185.254 278.216 185.681 278.216C186.086 278.216 186.406 278.333 186.641 278.568C186.875 278.781 186.993 279.101 186.993 279.528V288.904H186.577C187.025 287.667 187.75 286.739 188.753 286.12C189.777 285.48 190.95 285.16 192.273 285.16C193.51 285.16 194.534 285.384 195.345 285.832C196.177 286.28 196.795 286.963 197.201 287.88C197.606 288.776 197.809 289.917 197.809 291.304V299.88C197.809 300.307 197.691 300.637 197.457 300.872C197.243 301.107 196.934 301.224 196.529 301.224C196.102 301.224 195.771 301.107 195.537 300.872C195.323 300.637 195.217 300.307 195.217 299.88V291.464C195.217 290.013 194.929 288.957 194.353 288.296C193.798 287.613 192.902 287.272 191.665 287.272C190.235 287.272 189.094 287.72 188.241 288.616C187.409 289.491 186.993 290.664 186.993 292.136V299.88C186.993 300.776 186.555 301.224 185.681 301.224ZM207.484 301.288C206.418 301.288 205.458 301.085 204.604 300.68C203.772 300.253 203.111 299.677 202.62 298.952C202.13 298.227 201.884 297.416 201.884 296.52C201.884 295.368 202.172 294.461 202.748 293.8C203.346 293.139 204.316 292.669 205.66 292.392C207.026 292.115 208.882 291.976 211.228 291.976H212.668V293.672H211.26C209.532 293.672 208.167 293.757 207.164 293.928C206.183 294.077 205.49 294.344 205.084 294.728C204.7 295.112 204.508 295.656 204.508 296.36C204.508 297.235 204.807 297.949 205.404 298.504C206.023 299.059 206.855 299.336 207.9 299.336C208.754 299.336 209.5 299.133 210.14 298.728C210.802 298.323 211.314 297.768 211.676 297.064C212.06 296.36 212.252 295.549 212.252 294.632V290.984C212.252 289.661 211.986 288.712 211.452 288.136C210.919 287.539 210.044 287.24 208.828 287.24C208.082 287.24 207.335 287.336 206.588 287.528C205.842 287.72 205.052 288.029 204.22 288.456C203.922 288.605 203.666 288.659 203.452 288.616C203.239 288.552 203.068 288.435 202.94 288.264C202.812 288.093 202.738 287.901 202.716 287.688C202.695 287.453 202.738 287.229 202.844 287.016C202.972 286.803 203.164 286.632 203.42 286.504C204.359 286.035 205.287 285.693 206.204 285.48C207.122 285.267 207.996 285.16 208.828 285.16C210.172 285.16 211.282 285.384 212.156 285.832C213.031 286.259 213.682 286.92 214.108 287.816C214.535 288.691 214.748 289.821 214.748 291.208V299.88C214.748 300.307 214.642 300.637 214.428 300.872C214.236 301.107 213.948 301.224 213.564 301.224C213.159 301.224 212.85 301.107 212.636 300.872C212.423 300.637 212.316 300.307 212.316 299.88V297.384H212.604C212.434 298.195 212.103 298.888 211.612 299.464C211.143 300.04 210.556 300.488 209.852 300.808C209.148 301.128 208.359 301.288 207.484 301.288ZM225.797 301.288C224.581 301.288 223.557 301.075 222.725 300.648C221.914 300.2 221.306 299.56 220.901 298.728C220.496 297.875 220.293 296.84 220.293 295.624V287.464H218.149C217.786 287.464 217.509 287.379 217.317 287.208C217.125 287.016 217.029 286.76 217.029 286.44C217.029 286.12 217.125 285.875 217.317 285.704C217.509 285.533 217.786 285.448 218.149 285.448H220.293V281.768C220.293 281.341 220.41 281.021 220.645 280.808C220.88 280.573 221.2 280.456 221.605 280.456C222.01 280.456 222.32 280.573 222.533 280.808C222.768 281.021 222.885 281.341 222.885 281.768V285.448H226.917C227.28 285.448 227.557 285.533 227.749 285.704C227.941 285.875 228.037 286.12 228.037 286.44C228.037 286.76 227.941 287.016 227.749 287.208C227.557 287.379 227.28 287.464 226.917 287.464H222.885V295.368C222.885 296.584 223.141 297.512 223.653 298.152C224.165 298.771 224.997 299.08 226.149 299.08C226.554 299.08 226.896 299.037 227.173 298.952C227.472 298.867 227.717 298.824 227.909 298.824C228.101 298.803 228.261 298.867 228.389 299.016C228.517 299.165 228.581 299.421 228.581 299.784C228.581 300.04 228.528 300.275 228.421 300.488C228.336 300.701 228.176 300.851 227.941 300.936C227.685 301.021 227.344 301.096 226.917 301.16C226.512 301.245 226.138 301.288 225.797 301.288ZM235.993 301.288C235.033 301.288 234.062 301.171 233.081 300.936C232.121 300.701 231.225 300.296 230.393 299.72C230.179 299.571 230.03 299.4 229.945 299.208C229.859 298.995 229.827 298.792 229.849 298.6C229.891 298.387 229.977 298.205 230.105 298.056C230.254 297.907 230.425 297.821 230.617 297.8C230.83 297.757 231.065 297.8 231.321 297.928C232.153 298.44 232.953 298.803 233.721 299.016C234.51 299.208 235.289 299.304 236.057 299.304C237.273 299.304 238.19 299.08 238.809 298.632C239.427 298.184 239.737 297.576 239.737 296.808C239.737 296.211 239.534 295.741 239.129 295.4C238.723 295.037 238.083 294.76 237.209 294.568L234.297 293.928C232.953 293.651 231.95 293.171 231.289 292.488C230.649 291.805 230.329 290.92 230.329 289.832C230.329 288.872 230.574 288.051 231.065 287.368C231.577 286.664 232.291 286.12 233.209 285.736C234.126 285.352 235.193 285.16 236.409 285.16C237.347 285.16 238.233 285.288 239.065 285.544C239.918 285.779 240.686 286.163 241.369 286.696C241.582 286.845 241.721 287.027 241.785 287.24C241.87 287.432 241.881 287.635 241.817 287.848C241.774 288.04 241.678 288.211 241.529 288.36C241.379 288.488 241.198 288.563 240.985 288.584C240.771 288.605 240.547 288.541 240.313 288.392C239.673 287.965 239.022 287.656 238.361 287.464C237.699 287.251 237.049 287.144 236.409 287.144C235.214 287.144 234.307 287.379 233.689 287.848C233.07 288.317 232.761 288.936 232.761 289.704C232.761 290.301 232.953 290.792 233.337 291.176C233.721 291.56 234.318 291.837 235.129 292.008L238.041 292.616C239.427 292.915 240.462 293.395 241.145 294.056C241.849 294.696 242.201 295.571 242.201 296.68C242.201 298.088 241.635 299.208 240.505 300.04C239.374 300.872 237.87 301.288 235.993 301.288ZM251.047 301.288C249.98 301.288 249.02 301.085 248.167 300.68C247.335 300.253 246.673 299.677 246.183 298.952C245.692 298.227 245.447 297.416 245.447 296.52C245.447 295.368 245.735 294.461 246.311 293.8C246.908 293.139 247.879 292.669 249.223 292.392C250.588 292.115 252.444 291.976 254.791 291.976H256.231V293.672H254.823C253.095 293.672 251.729 293.757 250.727 293.928C249.745 294.077 249.052 294.344 248.647 294.728C248.263 295.112 248.071 295.656 248.071 296.36C248.071 297.235 248.369 297.949 248.967 298.504C249.585 299.059 250.417 299.336 251.463 299.336C252.316 299.336 253.063 299.133 253.703 298.728C254.364 298.323 254.876 297.768 255.239 297.064C255.623 296.36 255.815 295.549 255.815 294.632V290.984C255.815 289.661 255.548 288.712 255.015 288.136C254.481 287.539 253.607 287.24 252.391 287.24C251.644 287.24 250.897 287.336 250.151 287.528C249.404 287.72 248.615 288.029 247.783 288.456C247.484 288.605 247.228 288.659 247.015 288.616C246.801 288.552 246.631 288.435 246.503 288.264C246.375 288.093 246.3 287.901 246.279 287.688C246.257 287.453 246.3 287.229 246.407 287.016C246.535 286.803 246.727 286.632 246.983 286.504C247.921 286.035 248.849 285.693 249.767 285.48C250.684 285.267 251.559 285.16 252.391 285.16C253.735 285.16 254.844 285.384 255.719 285.832C256.593 286.259 257.244 286.92 257.671 287.816C258.097 288.691 258.311 289.821 258.311 291.208V299.88C258.311 300.307 258.204 300.637 257.991 300.872C257.799 301.107 257.511 301.224 257.127 301.224C256.721 301.224 256.412 301.107 256.199 300.872C255.985 300.637 255.879 300.307 255.879 299.88V297.384H256.167C255.996 298.195 255.665 298.888 255.175 299.464C254.705 300.04 254.119 300.488 253.415 300.808C252.711 301.128 251.921 301.288 251.047 301.288ZM264.4 306.984C263.973 306.984 263.653 306.867 263.44 306.632C263.226 306.419 263.12 306.099 263.12 305.672V286.536C263.12 286.109 263.226 285.789 263.44 285.576C263.653 285.341 263.962 285.224 264.368 285.224C264.794 285.224 265.114 285.341 265.328 285.576C265.562 285.789 265.68 286.109 265.68 286.536V289.576L265.328 289.128C265.669 287.912 266.341 286.952 267.344 286.248C268.368 285.523 269.584 285.16 270.992 285.16C272.378 285.16 273.584 285.491 274.608 286.152C275.653 286.792 276.453 287.72 277.008 288.936C277.584 290.131 277.872 291.56 277.872 293.224C277.872 294.867 277.584 296.296 277.008 297.512C276.453 298.707 275.664 299.635 274.64 300.296C273.616 300.957 272.4 301.288 270.992 301.288C269.584 301.288 268.378 300.936 267.376 300.232C266.373 299.507 265.69 298.547 265.328 297.352H265.712V305.672C265.712 306.099 265.594 306.419 265.36 306.632C265.125 306.867 264.805 306.984 264.4 306.984ZM270.448 299.208C271.429 299.208 272.272 298.973 272.976 298.504C273.701 298.035 274.256 297.352 274.64 296.456C275.045 295.56 275.248 294.483 275.248 293.224C275.248 291.283 274.81 289.8 273.936 288.776C273.082 287.752 271.92 287.24 270.448 287.24C269.488 287.24 268.645 287.475 267.92 287.944C267.194 288.392 266.629 289.064 266.224 289.96C265.84 290.835 265.648 291.923 265.648 293.224C265.648 295.144 266.085 296.627 266.96 297.672C267.834 298.696 268.997 299.208 270.448 299.208ZM283.056 306.984C282.629 306.984 282.309 306.867 282.096 306.632C281.882 306.419 281.776 306.099 281.776 305.672V286.536C281.776 286.109 281.882 285.789 282.096 285.576C282.309 285.341 282.618 285.224 283.024 285.224C283.45 285.224 283.77 285.341 283.984 285.576C284.218 285.789 284.336 286.109 284.336 286.536V289.576L283.984 289.128C284.325 287.912 284.997 286.952 286 286.248C287.024 285.523 288.24 285.16 289.648 285.16C291.034 285.16 292.24 285.491 293.264 286.152C294.309 286.792 295.109 287.72 295.664 288.936C296.24 290.131 296.528 291.56 296.528 293.224C296.528 294.867 296.24 296.296 295.664 297.512C295.109 298.707 294.32 299.635 293.296 300.296C292.272 300.957 291.056 301.288 289.648 301.288C288.24 301.288 287.034 300.936 286.032 300.232C285.029 299.507 284.346 298.547 283.984 297.352H284.368V305.672C284.368 306.099 284.25 306.419 284.016 306.632C283.781 306.867 283.461 306.984 283.056 306.984ZM289.104 299.208C290.085 299.208 290.928 298.973 291.632 298.504C292.357 298.035 292.912 297.352 293.296 296.456C293.701 295.56 293.904 294.483 293.904 293.224C293.904 291.283 293.466 289.8 292.592 288.776C291.738 287.752 290.576 287.24 289.104 287.24C288.144 287.24 287.301 287.475 286.576 287.944C285.85 288.392 285.285 289.064 284.88 289.96C284.496 290.835 284.304 291.923 284.304 293.224C284.304 295.144 284.741 296.627 285.616 297.672C286.49 298.696 287.653 299.208 289.104 299.208ZM309.93 301.128C309.397 301.128 308.97 300.968 308.65 300.648C308.33 300.307 308.17 299.88 308.17 299.368C308.17 298.856 308.33 298.44 308.65 298.12C308.97 297.779 309.397 297.608 309.93 297.608C310.463 297.608 310.879 297.779 311.178 298.12C311.498 298.44 311.658 298.856 311.658 299.368C311.658 299.88 311.498 300.307 311.178 300.648C310.879 300.968 310.463 301.128 309.93 301.128ZM309.93 288.84C309.397 288.84 308.97 288.669 308.65 288.328C308.33 287.987 308.17 287.571 308.17 287.08C308.17 286.547 308.33 286.12 308.65 285.8C308.97 285.48 309.397 285.32 309.93 285.32C310.463 285.32 310.879 285.48 311.178 285.8C311.498 286.12 311.658 286.547 311.658 287.08C311.658 287.571 311.498 287.987 311.178 288.328C310.879 288.669 310.463 288.84 309.93 288.84ZM331.381 301.288C328.8 301.288 326.837 300.296 325.493 298.312C324.149 296.328 323.477 293.459 323.477 289.704C323.477 287.187 323.776 285.075 324.373 283.368C324.971 281.64 325.856 280.339 327.029 279.464C328.224 278.589 329.675 278.152 331.381 278.152C333.984 278.152 335.947 279.133 337.269 281.096C338.613 283.037 339.285 285.896 339.285 289.672C339.285 292.189 338.987 294.312 338.389 296.04C337.792 297.768 336.907 299.08 335.733 299.976C334.56 300.851 333.109 301.288 331.381 301.288ZM331.381 299.016C333.173 299.016 334.496 298.259 335.349 296.744C336.224 295.208 336.661 292.851 336.661 289.672C336.661 286.472 336.224 284.136 335.349 282.664C334.496 281.171 333.173 280.424 331.381 280.424C329.611 280.424 328.288 281.171 327.413 282.664C326.539 284.157 326.101 286.493 326.101 289.672C326.101 292.851 326.539 295.208 327.413 296.744C328.288 298.259 329.611 299.016 331.381 299.016ZM350.569 301.288C348.883 301.288 347.433 301.043 346.217 300.552C345.022 300.061 344.105 299.347 343.465 298.408C342.846 297.469 342.537 296.339 342.537 295.016C342.537 293.971 342.75 293.043 343.177 292.232C343.603 291.4 344.201 290.728 344.969 290.216C345.737 289.704 346.622 289.384 347.625 289.256V289.736C346.238 289.437 345.129 288.787 344.297 287.784C343.486 286.76 343.081 285.555 343.081 284.168C343.081 282.888 343.379 281.811 343.977 280.936C344.595 280.04 345.47 279.357 346.601 278.888C347.731 278.397 349.054 278.152 350.569 278.152C352.105 278.152 353.427 278.397 354.537 278.888C355.667 279.357 356.542 280.04 357.161 280.936C357.779 281.811 358.089 282.888 358.089 284.168C358.089 285.085 357.897 285.939 357.513 286.728C357.15 287.496 356.627 288.136 355.945 288.648C355.262 289.16 354.462 289.512 353.545 289.704V289.256C355.059 289.469 356.275 290.099 357.193 291.144C358.131 292.168 358.601 293.459 358.601 295.016C358.601 296.339 358.281 297.469 357.641 298.408C357.022 299.347 356.105 300.061 354.889 300.552C353.694 301.043 352.254 301.288 350.569 301.288ZM350.569 299.112C352.382 299.112 353.747 298.76 354.665 298.056C355.603 297.352 356.073 296.285 356.073 294.856C356.073 293.448 355.603 292.403 354.665 291.72C353.747 291.016 352.382 290.664 350.569 290.664C348.777 290.664 347.411 291.016 346.473 291.72C345.534 292.403 345.065 293.448 345.065 294.856C345.065 296.285 345.534 297.352 346.473 298.056C347.411 298.76 348.777 299.112 350.569 299.112ZM350.569 288.488C351.614 288.488 352.499 288.328 353.225 288.008C353.971 287.667 354.547 287.187 354.953 286.568C355.358 285.949 355.561 285.224 355.561 284.392C355.561 283.112 355.113 282.12 354.217 281.416C353.342 280.691 352.126 280.328 350.569 280.328C349.011 280.328 347.795 280.691 346.921 281.416C346.046 282.12 345.609 283.112 345.609 284.392C345.609 285.672 346.046 286.675 346.921 287.4C347.795 288.125 349.011 288.488 350.569 288.488ZM370.236 301.288C369.02 301.288 367.804 301.107 366.588 300.744C365.394 300.381 364.306 299.816 363.324 299.048C363.068 298.877 362.898 298.675 362.812 298.44C362.727 298.205 362.716 297.971 362.78 297.736C362.844 297.501 362.962 297.309 363.132 297.16C363.303 296.989 363.506 296.893 363.74 296.872C363.996 296.851 364.263 296.936 364.54 297.128C365.415 297.747 366.322 298.205 367.26 298.504C368.199 298.803 369.18 298.952 370.204 298.952C371.25 298.952 372.146 298.76 372.892 298.376C373.66 297.971 374.236 297.416 374.62 296.712C375.026 295.987 375.228 295.144 375.228 294.184C375.228 292.712 374.802 291.507 373.948 290.568C373.095 289.629 371.922 289.16 370.428 289.16C369.511 289.16 368.668 289.331 367.9 289.672C367.132 290.013 366.428 290.557 365.788 291.304C365.639 291.475 365.458 291.624 365.244 291.752C365.052 291.859 364.828 291.912 364.572 291.912C364.21 291.912 363.922 291.816 363.708 291.624C363.516 291.411 363.42 291.133 363.42 290.792V279.656C363.42 279.251 363.527 278.952 363.74 278.76C363.954 278.547 364.252 278.44 364.636 278.44H375.516C375.922 278.44 376.22 278.536 376.412 278.728C376.626 278.92 376.732 279.197 376.732 279.56C376.732 279.923 376.626 280.2 376.412 280.392C376.22 280.584 375.922 280.68 375.516 280.68H366.012V289.672H365.308C365.863 288.776 366.631 288.093 367.612 287.624C368.594 287.133 369.692 286.888 370.908 286.888C372.338 286.888 373.564 287.187 374.588 287.784C375.634 288.381 376.434 289.224 376.988 290.312C377.564 291.379 377.852 292.627 377.852 294.056C377.852 295.464 377.543 296.712 376.924 297.8C376.306 298.888 375.431 299.741 374.3 300.36C373.17 300.979 371.815 301.288 370.236 301.288ZM384.72 301.224C384.421 301.224 384.165 301.149 383.952 301C383.738 300.851 383.6 300.648 383.536 300.392C383.493 300.115 383.557 299.816 383.728 299.496L394 279.56V280.712H382.48C382.096 280.712 381.797 280.616 381.584 280.424C381.37 280.211 381.264 279.923 381.264 279.56C381.264 279.197 381.37 278.92 381.584 278.728C381.797 278.536 382.096 278.44 382.48 278.44H395.184C395.568 278.44 395.877 278.536 396.112 278.728C396.346 278.92 396.464 279.197 396.464 279.56C396.464 279.859 396.421 280.125 396.336 280.36C396.272 280.573 396.176 280.819 396.048 281.096L386.192 300.328C386.042 300.627 385.85 300.851 385.616 301C385.381 301.149 385.082 301.224 384.72 301.224ZM407.875 301.288C406.638 301.288 405.39 301.107 404.131 300.744C402.894 300.381 401.817 299.848 400.899 299.144C400.622 298.952 400.441 298.739 400.355 298.504C400.27 298.248 400.249 298.013 400.291 297.8C400.355 297.565 400.473 297.373 400.643 297.224C400.814 297.053 401.017 296.957 401.251 296.936C401.507 296.915 401.785 297 402.083 297.192C403.022 297.811 403.961 298.259 404.899 298.536C405.838 298.813 406.809 298.952 407.811 298.952C408.899 298.952 409.817 298.792 410.563 298.472C411.31 298.152 411.875 297.683 412.259 297.064C412.643 296.424 412.835 295.645 412.835 294.728C412.835 293.405 412.398 292.403 411.523 291.72C410.649 291.037 409.379 290.696 407.715 290.696H405.443C405.038 290.696 404.729 290.6 404.515 290.408C404.302 290.195 404.195 289.907 404.195 289.544C404.195 289.203 404.302 288.936 404.515 288.744C404.729 288.531 405.038 288.424 405.443 288.424H407.491C408.473 288.424 409.305 288.253 409.987 287.912C410.691 287.571 411.235 287.091 411.619 286.472C412.003 285.832 412.195 285.064 412.195 284.168C412.195 282.973 411.811 282.067 411.043 281.448C410.275 280.808 409.166 280.488 407.715 280.488C406.755 280.488 405.849 280.627 404.995 280.904C404.142 281.181 403.299 281.651 402.467 282.312C402.211 282.504 401.955 282.6 401.699 282.6C401.465 282.579 401.262 282.504 401.091 282.376C400.942 282.227 400.825 282.035 400.739 281.8C400.675 281.565 400.686 281.331 400.771 281.096C400.857 280.84 401.038 280.605 401.315 280.392C402.169 279.667 403.171 279.112 404.323 278.728C405.475 278.344 406.659 278.152 407.875 278.152C409.326 278.152 410.563 278.387 411.587 278.856C412.633 279.304 413.433 279.965 413.987 280.84C414.542 281.693 414.819 282.728 414.819 283.944C414.819 284.861 414.638 285.704 414.275 286.472C413.934 287.219 413.443 287.859 412.803 288.392C412.185 288.925 411.427 289.309 410.531 289.544V289.192C412.089 289.448 413.294 290.088 414.147 291.112C415.022 292.115 415.459 293.384 415.459 294.92C415.459 296.221 415.15 297.352 414.531 298.312C413.934 299.251 413.07 299.987 411.939 300.52C410.809 301.032 409.454 301.288 407.875 301.288ZM427.319 301.288C424.737 301.288 422.775 300.296 421.431 298.312C420.087 296.328 419.415 293.459 419.415 289.704C419.415 287.187 419.713 285.075 420.311 283.368C420.908 281.64 421.793 280.339 422.967 279.464C424.161 278.589 425.612 278.152 427.319 278.152C429.921 278.152 431.884 279.133 433.207 281.096C434.551 283.037 435.223 285.896 435.223 289.672C435.223 292.189 434.924 294.312 434.327 296.04C433.729 297.768 432.844 299.08 431.671 299.976C430.497 300.851 429.047 301.288 427.319 301.288ZM427.319 299.016C429.111 299.016 430.433 298.259 431.287 296.744C432.161 295.208 432.599 292.851 432.599 289.672C432.599 286.472 432.161 284.136 431.287 282.664C430.433 281.171 429.111 280.424 427.319 280.424C425.548 280.424 424.225 281.171 423.351 282.664C422.476 284.157 422.039 286.493 422.039 289.672C422.039 292.851 422.476 295.208 423.351 296.744C424.225 298.259 425.548 299.016 427.319 299.016ZM441.034 301C440.565 301 440.213 300.893 439.978 300.68C439.765 300.445 439.658 300.136 439.658 299.752C439.658 299.517 439.712 299.293 439.818 299.08C439.946 298.845 440.117 298.611 440.33 298.376L447.498 290.696C448.586 289.523 449.365 288.445 449.834 287.464C450.325 286.461 450.57 285.448 450.57 284.424C450.57 283.144 450.176 282.173 449.386 281.512C448.618 280.829 447.488 280.488 445.994 280.488C445.034 280.488 444.128 280.637 443.274 280.936C442.421 281.235 441.6 281.693 440.81 282.312C440.533 282.525 440.277 282.621 440.042 282.6C439.829 282.579 439.637 282.493 439.466 282.344C439.296 282.195 439.178 282.003 439.114 281.768C439.05 281.533 439.05 281.299 439.114 281.064C439.2 280.829 439.37 280.616 439.626 280.424C440.458 279.741 441.461 279.197 442.634 278.792C443.808 278.365 445.002 278.152 446.218 278.152C447.733 278.152 449.013 278.387 450.058 278.856C451.104 279.325 451.893 280.019 452.426 280.936C452.96 281.832 453.226 282.931 453.226 284.232C453.226 285.128 453.077 286.013 452.778 286.888C452.501 287.741 452.064 288.616 451.466 289.512C450.89 290.408 450.133 291.336 449.194 292.296L442.378 299.496V298.76H453.162C453.568 298.76 453.866 298.856 454.058 299.048C454.272 299.219 454.378 299.485 454.378 299.848C454.378 300.232 454.272 300.52 454.058 300.712C453.866 300.904 453.568 301 453.162 301H441.034ZM466.462 301.288C464.691 301.288 463.176 300.861 461.918 300.008C460.68 299.133 459.742 297.875 459.102 296.232C458.462 294.589 458.142 292.605 458.142 290.28C458.142 288.317 458.344 286.589 458.75 285.096C459.155 283.603 459.752 282.344 460.542 281.32C461.331 280.275 462.291 279.485 463.422 278.952C464.552 278.419 465.832 278.152 467.262 278.152C468.243 278.152 469.246 278.344 470.27 278.728C471.315 279.112 472.232 279.656 473.022 280.36C473.256 280.531 473.395 280.744 473.438 281C473.502 281.235 473.502 281.469 473.438 281.704C473.374 281.917 473.256 282.099 473.086 282.248C472.936 282.397 472.744 282.483 472.51 282.504C472.275 282.504 472.03 282.408 471.774 282.216C471.048 281.597 470.302 281.16 469.534 280.904C468.766 280.627 467.987 280.488 467.198 280.488C465.811 280.488 464.627 280.829 463.646 281.512C462.686 282.195 461.95 283.229 461.438 284.616C460.947 285.981 460.702 287.699 460.702 289.768V292.744H460.414C460.542 291.528 460.894 290.483 461.47 289.608C462.067 288.712 462.824 288.029 463.742 287.56C464.659 287.091 465.694 286.856 466.846 286.856C468.168 286.856 469.342 287.155 470.366 287.752C471.39 288.349 472.19 289.192 472.766 290.28C473.342 291.347 473.63 292.573 473.63 293.96C473.63 295.368 473.331 296.627 472.734 297.736C472.136 298.845 471.294 299.72 470.206 300.36C469.118 300.979 467.87 301.288 466.462 301.288ZM466.302 299.048C467.24 299.048 468.072 298.845 468.798 298.44C469.523 298.013 470.088 297.427 470.494 296.68C470.899 295.912 471.102 295.037 471.102 294.056C471.102 293.075 470.899 292.211 470.494 291.464C470.088 290.717 469.523 290.131 468.798 289.704C468.072 289.277 467.24 289.064 466.302 289.064C465.363 289.064 464.531 289.277 463.806 289.704C463.08 290.131 462.515 290.717 462.11 291.464C461.704 292.211 461.502 293.075 461.502 294.056C461.502 295.037 461.704 295.912 462.11 296.68C462.515 297.427 463.08 298.013 463.806 298.44C464.531 298.845 465.363 299.048 466.302 299.048ZM480.241 301C479.857 301 479.559 300.904 479.345 300.712C479.132 300.499 479.025 300.211 479.025 299.848C479.025 299.485 479.132 299.219 479.345 299.048C479.559 298.856 479.857 298.76 480.241 298.76H484.401V280.616H485.777L481.137 283.688C480.86 283.837 480.593 283.901 480.337 283.88C480.103 283.859 479.9 283.773 479.729 283.624C479.58 283.453 479.473 283.261 479.409 283.048C479.345 282.813 479.356 282.579 479.441 282.344C479.527 282.088 479.708 281.875 479.985 281.704L484.401 278.792C484.679 278.621 484.945 278.483 485.201 278.376C485.457 278.269 485.713 278.216 485.969 278.216C486.268 278.216 486.513 278.312 486.705 278.504C486.919 278.675 487.025 278.952 487.025 279.336V298.76H490.865C491.249 298.76 491.548 298.856 491.761 299.048C491.975 299.219 492.081 299.485 492.081 299.848C492.081 300.232 491.975 300.52 491.761 300.712C491.548 300.904 491.249 301 490.865 301H480.241ZM504.069 301.288C502.383 301.288 500.933 301.043 499.717 300.552C498.522 300.061 497.605 299.347 496.965 298.408C496.346 297.469 496.037 296.339 496.037 295.016C496.037 293.971 496.25 293.043 496.677 292.232C497.103 291.4 497.701 290.728 498.469 290.216C499.237 289.704 500.122 289.384 501.125 289.256V289.736C499.738 289.437 498.629 288.787 497.797 287.784C496.986 286.76 496.581 285.555 496.581 284.168C496.581 282.888 496.879 281.811 497.477 280.936C498.095 280.04 498.97 279.357 500.101 278.888C501.231 278.397 502.554 278.152 504.069 278.152C505.605 278.152 506.927 278.397 508.037 278.888C509.167 279.357 510.042 280.04 510.661 280.936C511.279 281.811 511.589 282.888 511.589 284.168C511.589 285.085 511.397 285.939 511.013 286.728C510.65 287.496 510.127 288.136 509.445 288.648C508.762 289.16 507.962 289.512 507.045 289.704V289.256C508.559 289.469 509.775 290.099 510.693 291.144C511.631 292.168 512.101 293.459 512.101 295.016C512.101 296.339 511.781 297.469 511.141 298.408C510.522 299.347 509.605 300.061 508.389 300.552C507.194 301.043 505.754 301.288 504.069 301.288ZM504.069 299.112C505.882 299.112 507.247 298.76 508.165 298.056C509.103 297.352 509.573 296.285 509.573 294.856C509.573 293.448 509.103 292.403 508.165 291.72C507.247 291.016 505.882 290.664 504.069 290.664C502.277 290.664 500.911 291.016 499.973 291.72C499.034 292.403 498.565 293.448 498.565 294.856C498.565 296.285 499.034 297.352 499.973 298.056C500.911 298.76 502.277 299.112 504.069 299.112ZM504.069 288.488C505.114 288.488 505.999 288.328 506.725 288.008C507.471 287.667 508.047 287.187 508.453 286.568C508.858 285.949 509.061 285.224 509.061 284.392C509.061 283.112 508.613 282.12 507.717 281.416C506.842 280.691 505.626 280.328 504.069 280.328C502.511 280.328 501.295 280.691 500.421 281.416C499.546 282.12 499.109 283.112 499.109 284.392C499.109 285.672 499.546 286.675 500.421 287.4C501.295 288.125 502.511 288.488 504.069 288.488ZM521.688 301.288C520.728 301.288 519.726 301.096 518.68 300.712C517.635 300.328 516.718 299.773 515.928 299.048C515.694 298.877 515.544 298.675 515.48 298.44C515.438 298.205 515.448 297.981 515.512 297.768C515.576 297.533 515.683 297.341 515.832 297.192C516.003 297.021 516.206 296.936 516.44 296.936C516.675 296.915 516.92 297 517.176 297.192C517.902 297.811 518.648 298.259 519.416 298.536C520.184 298.813 520.963 298.952 521.752 298.952C523.139 298.952 524.312 298.611 525.272 297.928C526.254 297.245 526.99 296.211 527.48 294.824C527.992 293.437 528.248 291.72 528.248 289.672V286.696H528.536C528.408 287.891 528.046 288.936 527.448 289.832C526.872 290.728 526.126 291.411 525.208 291.88C524.291 292.349 523.256 292.584 522.104 292.584C520.782 292.584 519.608 292.285 518.584 291.688C517.56 291.091 516.76 290.248 516.184 289.16C515.608 288.072 515.32 286.845 515.32 285.48C515.32 284.051 515.619 282.792 516.216 281.704C516.835 280.595 517.678 279.731 518.744 279.112C519.832 278.472 521.08 278.152 522.488 278.152C524.259 278.152 525.763 278.589 527 279.464C528.259 280.317 529.208 281.565 529.848 283.208C530.488 284.851 530.808 286.835 530.808 289.16C530.808 291.123 530.606 292.851 530.2 294.344C529.795 295.837 529.198 297.107 528.408 298.152C527.619 299.176 526.659 299.955 525.528 300.488C524.398 301.021 523.118 301.288 521.688 301.288ZM522.648 290.376C523.608 290.376 524.451 290.163 525.176 289.736C525.902 289.309 526.467 288.723 526.872 287.976C527.278 287.208 527.48 286.333 527.48 285.352C527.48 284.371 527.278 283.507 526.872 282.76C526.467 282.013 525.902 281.427 525.176 281C524.451 280.573 523.608 280.36 522.648 280.36C521.71 280.36 520.878 280.573 520.152 281C519.448 281.427 518.883 282.013 518.456 282.76C518.051 283.507 517.848 284.371 517.848 285.352C517.848 286.333 518.051 287.208 518.456 287.976C518.883 288.723 519.448 289.309 520.152 289.736C520.878 290.163 521.71 290.376 522.648 290.376ZM537.804 301C537.42 301 537.121 300.904 536.908 300.712C536.694 300.499 536.588 300.211 536.588 299.848C536.588 299.485 536.694 299.219 536.908 299.048C537.121 298.856 537.42 298.76 537.804 298.76H541.964V280.616H543.34L538.7 283.688C538.422 283.837 538.156 283.901 537.9 283.88C537.665 283.859 537.462 283.773 537.292 283.624C537.142 283.453 537.036 283.261 536.972 283.048C536.908 282.813 536.918 282.579 537.004 282.344C537.089 282.088 537.27 281.875 537.548 281.704L541.964 278.792C542.241 278.621 542.508 278.483 542.764 278.376C543.02 278.269 543.276 278.216 543.532 278.216C543.83 278.216 544.076 278.312 544.268 278.504C544.481 278.675 544.588 278.952 544.588 279.336V298.76H548.428C548.812 298.76 549.11 298.856 549.324 299.048C549.537 299.219 549.644 299.485 549.644 299.848C549.644 300.232 549.537 300.52 549.324 300.712C549.11 300.904 548.812 301 548.428 301H537.804Z" fill="#C7C2C2"/>
</svg>
